<svg id="artwork" xmlns="http://www.w3.org/2000/svg" viewBox="0 0 155 60"><defs><style>.cls-1,.cls-3,.cls-4{fill:#fff;}.cls-1{fill-opacity:0;}.cls-2{fill:#a6a6a6;}.cls-3{stroke:#fff;stroke-miterlimit:10;stroke-width:0.2px;}.cls-5{fill:#ea4335;}.cls-6{fill:#fbbc04;}.cls-7{fill:#4285f4;}.cls-8{fill:#34a853;}</style></defs><rect class="cls-1" width="155" height="60"/><rect x="10" y="10" width="135" height="40" rx="5"/><path class="cls-2" d="M130.63,1.8a4.21,4.21,0,0,1,4.2,4.2V36a4.21,4.21,0,0,1-4.2,4.2H5.63A4.2,4.2,0,0,1,1.43,36V6a4.2,4.2,0,0,1,4.2-4.2h125m0-.8H5.63a5,5,0,0,0-5,5V36a5,5,0,0,0,5,5h125a5,5,0,0,0,5-5V6a5,5,0,0,0-5-5Z" transform="translate(9.38 9)"/><path class="cls-3" d="M48,11.24a2.71,2.71,0,0,1-.74,2,2.92,2.92,0,0,1-2.21.88A3.09,3.09,0,0,1,42,11a3.09,3.09,0,0,1,3.11-3.13,3.09,3.09,0,0,1,1.24.25,2.43,2.43,0,0,1,.93.67l-.52.53a2,2,0,0,0-1.65-.72A2.34,2.34,0,0,0,42.76,11a2.34,2.34,0,0,0,2.33,2.4,2.32,2.32,0,0,0,1.68-.67,1.87,1.87,0,0,0,.5-1.22H45.09v-.72H48A2.42,2.42,0,0,1,48,11.24Z" transform="translate(9.38 9)"/><path class="cls-3" d="M52.65,8.74H49.92v1.9h2.46v.72H49.92v1.9h2.73V14h-3.5V8h3.5Z" transform="translate(9.38 9)"/><path class="cls-3" d="M55.9,14h-.77V8.74H53.46V8h4.12v.74H55.9Z" transform="translate(9.38 9)"/><path class="cls-3" d="M60.56,14V8h.77v6Z" transform="translate(9.38 9)"/><path class="cls-3" d="M64.75,14H64V8.74H62.31V8h4.12v.74H64.75Z" transform="translate(9.38 9)"/><path class="cls-3" d="M74.23,13.22a3.11,3.11,0,0,1-4.4,0A3.08,3.08,0,0,1,69,11a3.08,3.08,0,0,1,.88-2.22,3.11,3.11,0,0,1,4.4,0A3.08,3.08,0,0,1,75.12,11,3,3,0,0,1,74.23,13.22Zm-3.83-.5A2.22,2.22,0,0,0,72,13.4a2.19,2.19,0,0,0,1.63-.68A2.32,2.32,0,0,0,74.33,11a2.32,2.32,0,0,0-.67-1.72A2.19,2.19,0,0,0,72,8.6a2.22,2.22,0,0,0-1.63.68A2.35,2.35,0,0,0,69.74,11,2.35,2.35,0,0,0,70.4,12.72Z" transform="translate(9.38 9)"/><path class="cls-3" d="M76.2,14V8h.94l2.91,4.67h0l0-1.16V8h.78v6H80L77,9.11h0l0,1.15V14Z" transform="translate(9.38 9)"/><path class="cls-4" d="M68.76,22.75A4.26,4.26,0,1,0,73,27,4.19,4.19,0,0,0,68.76,22.75Zm0,6.83A2.58,2.58,0,1,1,71.16,27,2.46,2.46,0,0,1,68.76,29.58Zm-9.31-6.83A4.26,4.26,0,1,0,63.72,27,4.19,4.19,0,0,0,59.45,22.75Zm0,6.83A2.58,2.58,0,1,1,61.85,27,2.46,2.46,0,0,1,59.45,29.58ZM48.37,24.06v1.8h4.32a3.72,3.72,0,0,1-1,2.27,4.39,4.39,0,0,1-3.33,1.32,4.8,4.8,0,0,1,0-9.6,4.61,4.61,0,0,1,3.25,1.29l1.28-1.27a6.31,6.31,0,0,0-4.53-1.82,6.61,6.61,0,1,0,0,13.21A6.08,6.08,0,0,0,53,29.41a6,6,0,0,0,1.56-4.23,5.42,5.42,0,0,0-.1-1.12Zm45.31,1.4A4,4,0,0,0,90,22.75,4,4,0,0,0,86,27a4.17,4.17,0,0,0,4.23,4.26,4.23,4.23,0,0,0,3.54-1.89l-1.45-1a2.41,2.41,0,0,1-2.09,1.17,2.16,2.16,0,0,1-2.07-1.29l5.69-2.35Zm-5.8,1.42a2.33,2.33,0,0,1,2.22-2.49,1.66,1.66,0,0,1,1.58.91ZM83.25,31h1.87V18.5H83.25Zm-3.06-7.3h-.06a3,3,0,0,0-2.24-.95,4.26,4.26,0,0,0,0,8.51,2.9,2.9,0,0,0,2.24-1h.06v.61c0,1.63-.87,2.5-2.27,2.5a2.35,2.35,0,0,1-2.14-1.51l-1.63.67a4.06,4.06,0,0,0,3.77,2.52c2.19,0,4-1.29,4-4.43V23H80.19Zm-2.14,5.88a2.58,2.58,0,0,1,0-5.15A2.39,2.39,0,0,1,80.32,27,2.38,2.38,0,0,1,78.05,29.58ZM102.43,18.5H98V31h1.87V26.26h2.6a3.89,3.89,0,1,0,0-7.76Zm0,6H99.83V20.24h2.65a2.14,2.14,0,1,1,0,4.28ZM114,22.73a3.5,3.5,0,0,0-3.33,1.91l1.66.69a1.76,1.76,0,0,1,1.7-.91A1.8,1.8,0,0,1,116,26v.12a4.21,4.21,0,0,0-2-.48c-1.79,0-3.6,1-3.6,2.82a2.89,2.89,0,0,0,3.1,2.75A2.63,2.63,0,0,0,115.94,30H116v1h1.8V26.19C117.81,24,116.15,22.73,114,22.73Zm-.22,6.85c-.62,0-1.47-.31-1.47-1.06,0-1,1.06-1.34,2-1.34a3.36,3.36,0,0,1,1.71.42A2.27,2.27,0,0,1,113.79,29.58ZM124.37,23l-2.14,5.42h-.07L120,23h-2l3.32,7.58-1.89,4.21h1.94L126.44,23Zm-16.81,8h1.87V18.5h-1.87Z" transform="translate(9.38 9)"/><path class="cls-5" d="M21.34,20.42,10.7,31.72h0a2.88,2.88,0,0,0,4.23,1.74l0,0,12-6.92Z" transform="translate(9.38 9)"/><path class="cls-6" d="M32.11,18.5h0l-5.17-3L21.1,20.68,27,26.53l5.15-3a2.88,2.88,0,0,0,0-5.06Z" transform="translate(9.38 9)"/><path class="cls-7" d="M10.7,10.28a2.55,2.55,0,0,0-.1.74V31a2.55,2.55,0,0,0,.1.74l11-11Z" transform="translate(9.38 9)"/><path class="cls-8" d="M21.42,21l5.51-5.51L15,8.55a2.88,2.88,0,0,0-4.26,1.72h0Z" transform="translate(9.38 9)"/></svg>