<?xml version="1.0" encoding="utf-8"?>
<!-- Generator: Adobe Illustrator 24.3.0, SVG Export Plug-In . SVG Version: 6.00 Build 0)  -->
<svg version="1.1" id="artwork" xmlns="http://www.w3.org/2000/svg" xmlns:xlink="http://www.w3.org/1999/xlink" x="0px" y="0px"
	 viewBox="0 0 138.6 44.1" style="enable-background:new 0 0 138.6 44.1;" xml:space="preserve">
<style type="text/css">
	.st0{fill:#FFFFFF;fill-opacity:0;}
	.st1{fill:#A6A6A6;}
	.st2{fill:#FFFFFF;stroke:#FFFFFF;stroke-width:0.2;stroke-miterlimit:10;}
	.st3{fill:#FFFFFF;}
	.st4{fill:#EA4335;}
	.st5{fill:#FBBC04;}
	.st6{fill:#4285F4;}
	.st7{fill:#34A853;}
</style>
<rect class="st0" width="138.6" height="44.1"/>
<path d="M6.6,1.9h125c2.8,0,5,2.2,5,5v30c0,2.8-2.2,5-5,5H6.6c-2.8,0-5-2.2-5-5v-30C1.6,4.2,3.9,1.9,6.6,1.9z"/>
<path class="st1" d="M131.6,2.7c2.3,0,4.2,1.9,4.2,4.2v30c0,2.3-1.9,4.2-4.2,4.2H6.6c-2.3,0-4.2-1.9-4.2-4.2c0,0,0,0,0,0v-30
	c0-2.3,1.9-4.2,4.2-4.2c0,0,0,0,0,0L131.6,2.7 M131.6,1.9H6.6c-2.8,0-5,2.2-5,5v30c0,2.8,2.2,5,5,5h125c2.8,0,5-2.2,5-5v-30
	C136.6,4.2,134.4,1.9,131.6,1.9z"/>
<path class="st2" d="M49,12.2c0,0.7-0.2,1.5-0.7,2c-0.6,0.6-1.4,0.9-2.2,0.9c-1.7,0-3.1-1.4-3-3.1c0-1.7,1.3-3.1,3-3.1
	c0,0,0,0,0.1,0c0.4,0,0.8,0.1,1.2,0.2c0.4,0.1,0.7,0.4,0.9,0.7l-0.5,0.5c-0.4-0.5-1-0.8-1.7-0.7c-1.3,0-2.3,1-2.4,2.3c0,0,0,0,0,0.1
	c0,1.3,1,2.4,2.3,2.4c0,0,0,0,0.1,0c0.6,0,1.2-0.2,1.7-0.7c0.3-0.3,0.5-0.8,0.5-1.2h-2.2v-0.7H49C49,11.9,49,12,49,12.2z"/>
<path class="st2" d="M53.6,9.7h-2.7v1.9h2.5v0.7h-2.5v1.9h2.7v0.7h-3.5v-6h3.5L53.6,9.7z"/>
<path class="st2" d="M56.9,14.9h-0.8V9.7h-1.7V8.9h4.1v0.7h-1.7V14.9z"/>
<path class="st2" d="M61.6,14.9v-6h0.8v6H61.6z"/>
<path class="st2" d="M65.7,14.9H65V9.7h-1.7V8.9h4.1v0.7h-1.7V14.9z"/>
<path class="st2" d="M75.2,14.1c-1.2,1.2-3.2,1.2-4.4,0c0,0,0,0,0,0c-0.6-0.6-0.9-1.4-0.8-2.2c0-0.8,0.3-1.6,0.9-2.2
	c1.2-1.2,3.2-1.2,4.4,0c0,0,0,0,0,0c0.6,0.6,0.9,1.4,0.8,2.2C76.1,12.8,75.8,13.6,75.2,14.1z M71.4,13.6c0.4,0.4,1,0.7,1.6,0.7
	c0.6,0,1.2-0.2,1.6-0.7c0.5-0.5,0.7-1.1,0.7-1.7c0-0.6-0.2-1.3-0.7-1.7c-0.4-0.5-1-0.7-1.7-0.7c-0.6,0-1.2,0.2-1.6,0.7
	c-0.4,0.5-0.7,1.1-0.6,1.7C70.7,12.6,71,13.2,71.4,13.6z"/>
<path class="st2" d="M77.2,14.9v-6h0.9l2.9,4.7l0,0v-1.2V8.9h0.8v6H81L78,10l0,0v1.1v3.7H77.2z"/>
<path class="st3" d="M69.8,23.7c-2.4,0-4.3,1.9-4.3,4.2s1.9,4.3,4.2,4.3c2.4,0,4.3-1.9,4.3-4.2c0,0,0,0,0,0c0-2.3-1.8-4.2-4.1-4.2
	C69.8,23.7,69.8,23.7,69.8,23.7z M69.8,30.5c-1.4,0.1-2.7-1-2.8-2.4c-0.1-1.4,1-2.7,2.4-2.8c1.4-0.1,2.7,1,2.8,2.4
	c0,0.1,0,0.1,0,0.2C72.2,29.3,71.2,30.4,69.8,30.5C69.8,30.5,69.8,30.5,69.8,30.5z M60.4,23.7c-2.4,0-4.3,1.9-4.2,4.3
	c0,2.4,1.9,4.3,4.3,4.2c2.4,0,4.3-1.9,4.2-4.3c0-2.3-1.8-4.2-4.1-4.3C60.5,23.7,60.5,23.7,60.4,23.7z M60.4,30.5
	c-1.4,0.1-2.7-1-2.8-2.4s1-2.7,2.4-2.8c1.4-0.1,2.7,1,2.8,2.4c0,0.1,0,0.1,0,0.2C62.9,29.3,61.9,30.4,60.4,30.5
	C60.5,30.5,60.5,30.5,60.4,30.5z M49.4,25v1.8h4.3c-0.1,0.8-0.4,1.7-1,2.3c-0.9,0.9-2.1,1.4-3.3,1.3c-2.7,0-4.8-2.1-4.8-4.8
	s2.1-4.8,4.8-4.8c1.2,0,2.4,0.4,3.2,1.3l1.3-1.3c-1.2-1.2-2.8-1.8-4.5-1.8c-3.6-0.1-6.7,2.7-6.9,6.3c-0.1,3.6,2.7,6.7,6.3,6.9
	c0.2,0,0.3,0,0.5,0c1.7,0.1,3.4-0.6,4.6-1.8c1.1-1.2,1.6-2.7,1.6-4.2c0-0.4,0-0.8-0.1-1.1H49.4z M94.7,26.4c-0.5-1.6-2-2.7-3.7-2.7
	c-2.2,0-4,1.8-4,4c0,0.1,0,0.2,0,0.3c0,2.3,1.8,4.2,4.1,4.3c0.1,0,0.1,0,0.2,0c1.4,0,2.8-0.7,3.5-1.9l-1.4-1
	c-0.4,0.7-1.2,1.2-2.1,1.2c-0.9,0-1.7-0.5-2.1-1.3l5.7-2.4L94.7,26.4z M88.9,27.8c-0.1-1.3,0.9-2.4,2.2-2.5c0,0,0,0,0.1,0
	c0.7,0,1.3,0.3,1.6,0.9L88.9,27.8z M84.2,31.9h1.9V19.4h-1.9V31.9z M81.2,24.6L81.2,24.6c-0.6-0.6-1.5-1-2.3-1
	c-2.3,0.1-4.2,2.1-4,4.5c0.1,2.2,1.9,3.9,4,4c0.9,0,1.7-0.4,2.2-1h0.1v0.6c0,1.6-0.9,2.5-2.3,2.5c-1,0-1.8-0.6-2.1-1.5l-1.6,0.7
	c0.6,1.5,2.1,2.5,3.8,2.5c2.2,0,4-1.3,4-4.4v-7.6h-1.7V24.6z M79,30.5c-1.4-0.1-2.5-1.3-2.4-2.7c0.1-1.3,1.1-2.3,2.4-2.4
	c1.3,0.1,2.3,1.2,2.3,2.5c0,0,0,0,0,0.1c0.1,1.3-0.9,2.5-2.2,2.6C79.1,30.5,79.1,30.5,79,30.5z M103.4,19.4H99v12.5h1.9v-4.7h2.6
	c2.1,0.2,4-1.5,4.2-3.6c0.2-2.1-1.5-4-3.6-4.2C103.8,19.4,103.7,19.4,103.4,19.4L103.4,19.4z M103.4,25.4h-2.6v-4.3h2.7
	c1.2,0,2.1,1,2.1,2.1C105.6,24.5,104.7,25.4,103.4,25.4L103.4,25.4z M115,23.6c-1.4-0.1-2.7,0.7-3.3,1.9l1.7,0.7
	c0.3-0.6,1-1,1.7-0.9c1-0.1,1.9,0.6,2,1.6V27c-0.6-0.3-1.3-0.5-2-0.5c-1.8,0-3.6,1-3.6,2.8c0.1,1.6,1.4,2.8,3,2.8c0,0,0.1,0,0.1,0
	c1,0.1,1.9-0.4,2.4-1.2h0.1v1h1.8v-4.8C118.8,24.9,117.1,23.6,115,23.6z M114.8,30.5c-0.6,0-1.5-0.3-1.5-1.1c0-1,1.1-1.3,2-1.3
	c0.6,0,1.2,0.1,1.7,0.4C116.9,29.6,115.9,30.5,114.8,30.5L114.8,30.5z M125.4,23.9l-2.1,5.4h-0.1l-2.2-5.4h-2l3.3,7.6l-1.9,4.2h1.9
	l5.1-11.8H125.4z M108.6,31.9h1.9V19.4h-1.9V31.9z"/>
<path class="st4" d="M22.3,21.3L11.7,32.6l0,0c0.4,1.5,2,2.4,3.5,2c0.2-0.1,0.5-0.2,0.7-0.3l0,0l12-6.9L22.3,21.3z"/>
<path class="st5" d="M33.1,19.4L33.1,19.4l-5.2-3l-5.8,5.2l5.9,5.9l5.2-3c1.4-0.8,1.9-2.5,1.2-3.9C34,20.1,33.6,19.7,33.1,19.4
	L33.1,19.4z"/>
<path class="st6" d="M11.7,11.2c-0.1,0.2-0.1,0.5-0.1,0.7v20c0,0.3,0,0.5,0.1,0.7l11-11L11.7,11.2z"/>
<path class="st7" d="M22.4,21.9l5.5-5.5L16,9.5c-1.4-0.8-3.1-0.4-4,1c-0.1,0.2-0.2,0.5-0.3,0.7l0,0L22.4,21.9z"/>
</svg>
