<?xml version="1.0" encoding="utf-8"?>
<!-- Generator: Adobe Illustrator 27.5.0, SVG Export Plug-In . SVG Version: 6.00 Build 0)  -->
<svg version="1.1" xmlns="http://www.w3.org/2000/svg" xmlns:xlink="http://www.w3.org/1999/xlink" x="0px" y="0px"
	 viewBox="0 0 500 500" style="enable-background:new 0 0 500 500;" xml:space="preserve">
<g id="Background_Complete">
	<rect x="416.779" y="398.494" style="fill:#EBEBEB;" width="33.122" height="0.25"/>
	<rect x="322.527" y="401.208" style="fill:#EBEBEB;" width="8.693" height="0.25"/>
	<rect x="396.586" y="389.208" style="fill:#EBEBEB;" width="19.192" height="0.25"/>
	<rect x="52.459" y="390.888" style="fill:#EBEBEB;" width="43.193" height="0.25"/>
	<rect x="104.556" y="390.888" style="fill:#EBEBEB;" width="6.333" height="0.25"/>
	<rect x="131.471" y="395.111" style="fill:#EBEBEB;" width="93.676" height="0.25"/>
	<g>
		<path style="fill:#EBEBEB;" d="M238.401,337.8H45.302c-3.147,0-5.708-2.561-5.708-5.708V60.66c0-3.147,2.561-5.708,5.708-5.708
			h193.099c3.146,0,5.707,2.561,5.707,5.708v271.432C244.108,335.239,241.547,337.8,238.401,337.8z M45.302,55.203
			c-3.01,0-5.458,2.448-5.458,5.458v271.432c0,3.01,2.448,5.458,5.458,5.458h193.099c3.009,0,5.457-2.448,5.457-5.458V60.66
			c0-3.009-2.448-5.458-5.457-5.458H45.302z"/>
		<path style="fill:#EBEBEB;" d="M454.698,337.8H261.599c-3.146,0-5.707-2.561-5.707-5.708V60.66c0-3.147,2.561-5.708,5.707-5.708
			h193.099c3.148,0,5.708,2.561,5.708,5.708v271.432C460.406,335.239,457.845,337.8,454.698,337.8z M261.599,55.203
			c-3.009,0-5.457,2.448-5.457,5.458v271.432c0,3.01,2.448,5.458,5.457,5.458h193.099c3.01,0,5.458-2.448,5.458-5.458V60.66
			c0-3.009-2.448-5.458-5.458-5.458H261.599z"/>
	</g>
	<rect y="382.398" style="fill:#EBEBEB;" width="500" height="0.25"/>
	<g>
		<g>
			<path style="fill:#E0E0E0;" d="M98.884,382.645L98.884,382.645c-0.466-0.039-0.813-0.448-0.774-0.915l17.05-204.292h1.696v1.695
				h-0.137l-16.92,202.739C99.76,382.338,99.351,382.684,98.884,382.645z"/>
		</g>
		<path style="fill:#E0E0E0;" d="M174.651,382.645L174.651,382.645c0.467-0.039,0.813-0.448,0.774-0.915l-17.05-204.292h-1.696
			v1.695h0.137l10.903,130.641h-54.85l-11.045-132.336h-1.696v1.695h0.137l16.921,202.739c0.039,0.466,0.448,0.813,0.915,0.774l0,0
			c0.466-0.039,0.813-0.448,0.774-0.915l-5.864-70.261h54.85l5.876,70.402C173.775,382.338,174.185,382.684,174.651,382.645z"/>
		<polygon style="fill:#EBEBEB;" points="178.575,282.79 97.565,282.79 87.337,160.236 168.347,160.236 		"/>
		<polygon style="fill:#FAFAFA;" points="174.891,279.4 165.228,163.626 91.021,163.626 100.683,279.4 		"/>
		<path style="fill:#E6E6E6;" d="M179.158,285.476H98.094c-1.484,0-2.687-1.203-2.687-2.686l0,0c0-1.484,1.203-2.687,2.687-2.687
			h81.064c1.484,0,2.686,1.203,2.686,2.687l0,0C181.845,284.273,180.642,285.476,179.158,285.476z"/>
	</g>
	<g>
		<g>
			<path style="fill:#E6E6E6;" d="M339.145,353.041c-1.132-13.601-5.819-21.643-9.551-25.993c-4.038-4.706-7.859-6.227-7.897-6.242
				l0.36-0.933c0.159,0.062,15.865,6.415,18.084,33.086L339.145,353.041z"/>
		</g>
		<g>
			<path style="fill:#E6E6E6;" d="M342.889,350.339l-1-0.012c0.517-44.48-30.222-57.74-30.533-57.869l0.383-0.924
				C312.056,291.666,343.414,305.19,342.889,350.339z"/>
		</g>
		<g>
			<path style="fill:#E6E6E6;" d="M345.821,350.335c-0.072-16.805,3.933-27.973,11.904-33.192c10.133-6.638,23.208-1,23.339-0.941
				l-0.403,0.915c-0.126-0.056-12.719-5.477-22.394,0.866c-7.665,5.024-11.516,15.908-11.446,32.349L345.821,350.335z"/>
		</g>
		<g>
			<path style="fill:#E6E6E6;" d="M344.353,357.726c-2.982-25.078-2.463-53.261-2.457-53.542l1,0.02
				c-0.006,0.281-0.523,28.397,2.451,53.405L344.353,357.726z"/>
		</g>
		<g>
			<path style="fill:#E6E6E6;" d="M349.845,350.343l-1-0.02c0.817-43.217,6.531-67.974,16.524-71.594
				c5.714-2.07,10.528,3.383,10.73,3.616l-0.755,0.655c-0.045-0.052-4.574-5.169-9.639-3.33
				C359.033,282.095,350.866,296.322,349.845,350.343z"/>
		</g>
		<g>
			<path style="fill:#F0F0F0;" d="M383.377,313.55c0,0,12.894-20.883,22.57-1.88c7.851,15.419-5.101,28.408-5.101,28.408
				s-55.503-8.581-41.807-27.893C367.468,300.301,383.377,313.55,383.377,313.55z"/>
			<g>
				<path style="fill:#E0E0E0;" d="M384.99,314.949c0,0,16.732,0.418,16.6,1.703c-0.132,1.285-14.611-0.725-13.596,1.302
					c1.016,2.027,14.59,6.043,14.413,7.773c-0.177,1.73-12.52-4.781-12.211-3.176c0.309,1.605,7.814,10.243,7.619,12.146
					c-0.195,1.903-6.797-9.439-7.992-8.513c-1.195,0.926-3.323,9.74-3.796,7.536c-0.473-2.204,2.176-10.985,0.47-13.103
					c-1.706-2.118-15.574,6.949-17.991,4.953C366.088,323.574,383.072,320.097,384.99,314.949z"/>
				<path style="fill:#E0E0E0;" d="M376.305,314.307c0,0-13.579-2.268-14.644,1.294
					C360.596,319.164,364.256,315.868,376.305,314.307z"/>
			</g>
		</g>
		<g>
			<path style="fill:#F0F0F0;" d="M304.591,290.52c0,0-10.695-22.09-22.261-4.174c-9.384,14.537,2.174,28.781,2.174,28.781
				s56.088-2.87,44.436-23.479C321.769,278.965,304.591,290.52,304.591,290.52z"/>
			<g>
				<path style="fill:#E0E0E0;" d="M302.843,291.747c0,0-16.687-1.292-16.687,0c0,1.292,14.609,0.77,13.392,2.683
					c-1.218,1.913-15.131,4.522-15.131,6.261c0,1.739,12.943-3.478,12.471-1.913c-0.471,1.565-8.819,9.392-8.819,11.305
					c0,1.913,7.725-8.696,8.819-7.652c1.094,1.044,2.312,10.028,3.007,7.884c0.696-2.144-1.043-11.15,0.87-13.082
					c1.913-1.932,14.783,8.503,17.392,6.763C320.766,302.257,304.225,297.064,302.843,291.747z"/>
				<path style="fill:#E0E0E0;" d="M311.548,291.996c0,0,13.74-0.87,14.435,2.783C326.679,298.431,323.375,294.778,311.548,291.996z
					"/>
			</g>
		</g>
		<g>
			<path style="fill:#F0F0F0;" d="M373.426,278.646c0,0,6.416-13.252,13.354-2.504c5.629,8.721-1.304,17.265-1.304,17.265
				s-33.646-1.721-26.656-14.085C363.121,271.714,373.426,278.646,373.426,278.646z"/>
			<g>
				<path style="fill:#E0E0E0;" d="M374.474,279.382c0,0,10.01-0.775,10.01,0c0,0.775-8.764,0.462-8.033,1.61
					c0.73,1.148,9.077,2.713,9.077,3.756c0,1.043-7.764-2.087-7.481-1.148c0.283,0.939,5.29,5.634,5.29,6.781
					c0,1.148-4.634-5.216-5.29-4.591c-0.656,0.626-1.387,6.016-1.804,4.729c-0.417-1.286,0.626-6.689-0.522-7.848
					c-1.148-1.159-8.868,5.101-10.433,4.057C363.723,285.687,373.646,282.572,374.474,279.382z"/>
				<path style="fill:#E0E0E0;" d="M369.253,279.531c0,0-8.242-0.522-8.659,1.669C360.176,283.392,362.158,281.201,369.253,279.531z
					"/>
			</g>
		</g>
		<g>
			<path style="fill:#F0F0F0;" d="M354.891,335.202c0,0,4.14-8.551,8.617-1.616c3.632,5.627-0.841,11.14-0.841,11.14
				s-21.71-1.111-17.2-9.088C348.242,330.729,354.891,335.202,354.891,335.202z"/>
			<g>
				<path style="fill:#E0E0E0;" d="M355.568,335.677c0,0,6.459-0.5,6.459,0c0,0.5-5.655,0.298-5.184,1.039
					c0.471,0.741,5.857,1.75,5.857,2.423c0,0.673-5.01-1.346-4.827-0.741c0.182,0.606,3.414,3.635,3.414,4.376
					c0,0.741-2.99-3.366-3.414-2.962c-0.424,0.404-0.895,3.882-1.164,3.052c-0.269-0.83,0.404-4.316-0.337-5.064
					c-0.741-0.748-5.722,3.291-6.732,2.618C348.63,339.745,355.033,337.734,355.568,335.677z"/>
				<path style="fill:#E0E0E0;" d="M352.198,335.773c0,0-5.318-0.337-5.587,1.077C346.342,338.264,347.621,336.85,352.198,335.773z"
					/>
			</g>
		</g>
		<g>
			<path style="fill:#F0F0F0;" d="M317.904,321.893c0,0-12.641-7.548-12.534,5.244c0.087,10.379,10.575,13.709,10.575,13.709
				s27.168-19.924,14.535-26.413C322.705,310.439,317.904,321.893,317.904,321.893z"/>
			<g>
				<path style="fill:#E0E0E0;" d="M317.432,323.084c0,0-8.79,4.852-8.364,5.5c0.426,0.648,7.576-4.429,7.597-3.069
					c0.02,1.36-6.094,7.253-5.521,8.125c0.573,0.872,5.341-6.009,5.621-5.069c0.28,0.94-1.325,7.614-0.695,8.573
					c0.631,0.959,1.006-6.905,1.899-6.742c0.892,0.162,4.464,4.265,4.106,2.961c-0.358-1.304-4.198-5.245-3.876-6.844
					c0.322-1.599,10.212-0.61,10.947-2.342C329.879,322.445,319.877,325.293,317.432,323.084z"/>
				<path style="fill:#E0E0E0;" d="M321.877,320.339c0,0,6.6-4.964,8.153-3.363C331.582,318.578,328.722,317.836,321.877,320.339z"
					/>
			</g>
		</g>
		<g>
			<path style="fill:#F0F0F0;" d="M347.868,296.652c0,0,11.539-6.89,11.441,4.787c-0.08,9.475-9.653,12.514-9.653,12.514
				s-24.8-18.187-13.268-24.111C343.485,286.197,347.868,296.652,347.868,296.652z"/>
			<g>
				<path style="fill:#E0E0E0;" d="M348.299,297.739c0,0,8.024,4.429,7.635,5.02c-0.389,0.591-6.916-4.043-6.935-2.801
					c-0.018,1.242,5.563,6.621,5.04,7.417c-0.523,0.796-4.875-5.485-5.131-4.627c-0.255,0.858,1.21,6.95,0.634,7.826
					c-0.576,0.875-0.918-6.303-1.733-6.155c-0.815,0.148-4.075,3.893-3.748,2.703c0.327-1.191,3.832-4.788,3.538-6.247
					c-0.294-1.46-9.322-0.557-9.992-2.138C336.937,297.156,346.067,299.756,348.299,297.739z"/>
				<path style="fill:#E0E0E0;" d="M344.241,295.234c0,0-6.025-4.531-7.442-3.07C335.382,293.626,337.993,292.949,344.241,295.234z"
					/>
			</g>
		</g>
		<polygon style="fill:#E6E6E6;" points="318.069,348.5 326.696,382.523 364.797,382.523 373.424,348.5 		"/>
	</g>
</g>
<g id="Background_Simple" style="display:none;">
	<g style="display:inline;">
		<path style="fill:#407BFF;" d="M149.59,338.415c22.902,12.512,53.985,22.721,90.685,19.42
			c41.486-3.732,78.005-23.689,101.601-44.326c36.092-31.565,51.878-67.185,53.543-100.76c1.352-27.265-6.848-54.491-35.112-73.981
			c-28.264-19.49-79.699-29.67-130.747-20.013c-34.821,6.587-65.545,21.403-88.484,38.025
			c-34.436,24.953-59.812,52.276-60.963,80.319c-1.04,25.351,8.832,49.568,28.426,70.386
			C119.336,318.958,133.098,329.405,149.59,338.415z"/>
		<path style="opacity:0.9;fill:#FFFFFF;" d="M149.59,338.415c22.902,12.512,53.985,22.721,90.685,19.42
			c41.486-3.732,78.005-23.689,101.601-44.326c36.092-31.565,51.878-67.185,53.543-100.76c1.352-27.265-6.848-54.491-35.112-73.981
			c-28.264-19.49-79.699-29.67-130.747-20.013c-34.821,6.587-65.545,21.403-88.484,38.025
			c-34.436,24.953-59.812,52.276-60.963,80.319c-1.04,25.351,8.832,49.568,28.426,70.386
			C119.336,318.958,133.098,329.405,149.59,338.415z"/>
	</g>
</g>
<g id="Shadow">
	<ellipse id="_x3C_Path_x3E__359_" style="fill:#F5F5F5;" cx="250" cy="415.693" rx="193.889" ry="11.323"/>
</g>
<g id="Document">
	<g>
		<g>
			<g>
				<g>
					<path style="fill:#407BFF;" d="M363.402,265.521l-0.001-1c1.944-0.002,3.925-0.136,5.887-0.398l0.133,0.99
						C367.415,265.383,365.39,265.519,363.402,265.521z M359.379,265.335c-2.035-0.191-4.039-0.534-5.955-1.018l0.245-0.969
						c1.867,0.472,3.819,0.805,5.804,0.991L359.379,265.335z M373.38,264.412l-0.216-0.977c1.914-0.423,3.823-0.972,5.675-1.632
						l0.336,0.941C377.284,263.419,375.335,263.98,373.38,264.412z M349.573,263.113c-1.918-0.721-3.752-1.605-5.451-2.629
						l0.516-0.858c1.648,0.993,3.427,1.851,5.287,2.551L349.573,263.113z M382.904,261.236l-0.413-0.91
						c1.8-0.816,3.552-1.751,5.206-2.778l0.527,0.85C386.533,259.448,384.743,260.403,382.904,261.236z M340.8,258.184
						c-0.851-0.676-1.676-1.405-2.453-2.168c-0.661-0.649-1.308-1.322-1.923-2l0.74-0.672c0.603,0.663,1.236,1.322,1.884,1.959
						c0.751,0.738,1.55,1.443,2.374,2.098L340.8,258.184z M391.543,256.122l-0.603-0.797c1.588-1.201,3.08-2.507,4.431-3.882
						l0.079-0.079l0.707,0.707l-0.072,0.073C394.698,253.553,393.171,254.892,391.543,256.122z M333.849,250.927
						c-1.233-1.617-2.353-3.311-3.328-5.033l0.87-0.492c0.953,1.683,2.047,3.338,3.253,4.918L333.849,250.927z M398.822,249.037
						l-0.787-0.617c1.231-1.569,2.308-3.225,3.199-4.922l0.886,0.465C401.2,245.714,400.091,247.421,398.822,249.037z
						 M328.709,242.297c-0.827-1.865-1.505-3.781-2.016-5.697l0.966-0.258c0.497,1.865,1.158,3.732,1.964,5.549L328.709,242.297z
						 M403.761,240.269l-0.938-0.346c0.674-1.834,1.164-3.743,1.457-5.674l0.988,0.15
						C404.966,236.397,404.459,238.372,403.761,240.269z M325.871,232.651c-0.251-1.681-0.379-3.379-0.379-5.049
						c0-0.331,0.005-0.661,0.015-0.992l1,0.03c-0.01,0.32-0.015,0.641-0.015,0.961c0,1.62,0.124,3.269,0.369,4.9L325.871,232.651z
						 M405.607,230.372l-1-0.02c0.003-0.178,0.005-0.357,0.005-0.537c0-1.749-0.153-3.537-0.457-5.312l0.985-0.169
						c0.313,1.831,0.472,3.676,0.471,5.481C405.612,230.001,405.61,230.186,405.607,230.372z M326.866,222.743l-0.988-0.154
						c0.311-1.995,0.813-3.969,1.494-5.868l0.941,0.338C327.654,218.898,327.167,220.81,326.866,222.743z M403.271,220.683
						c-0.538-1.844-1.243-3.695-2.093-5.502l0.905-0.426c0.873,1.854,1.595,3.754,2.148,5.648L403.271,220.683z M329.862,213.463
						l-0.893-0.452c0.899-1.774,1.978-3.5,3.207-5.13l0.799,0.603C331.78,210.066,330.733,211.741,329.862,213.463z
						 M399.337,211.708c-0.981-1.658-2.102-3.297-3.332-4.872l0.788-0.615c1.256,1.608,2.401,3.283,3.404,4.978L399.337,211.708z
						 M335.506,205.485l-0.729-0.684c0.194-0.207,0.392-0.412,0.591-0.616c1.197-1.218,2.498-2.38,3.869-3.457l0.617,0.786
						c-1.337,1.05-2.606,2.184-3.772,3.37C335.888,205.083,335.695,205.283,335.506,205.485z M393.458,203.831
						c-0.606-0.661-1.242-1.319-1.889-1.956c-0.75-0.738-1.548-1.447-2.372-2.107l0.626-0.78c0.849,0.681,1.672,1.413,2.447,2.175
						c0.66,0.648,1.308,1.319,1.925,1.993L393.458,203.831z M343.061,199.239l-0.54-0.842c1.675-1.074,3.456-2.049,5.293-2.899
						l0.42,0.907C346.437,197.236,344.697,198.19,343.061,199.239z M385.998,197.511c-1.645-1.016-3.413-1.899-5.253-2.627
						l0.367-0.93c1.895,0.749,3.715,1.659,5.411,2.706L385.998,197.511z M351.874,194.915l-0.338-0.941
						c1.888-0.677,3.839-1.235,5.8-1.659l0.211,0.978C355.63,193.706,353.721,194.252,351.874,194.915z M377.022,193.648
						c-1.863-0.508-3.809-0.876-5.784-1.096l0.11-0.994c2.026,0.226,4.023,0.604,5.936,1.126L377.022,193.648z M361.427,192.633
						l-0.123-0.992c1.803-0.224,3.626-0.338,5.419-0.338l0.607,0.004l-0.015,1l-0.592-0.004
						C364.971,192.303,363.189,192.415,361.427,192.633z"/>
				</g>
				<g>
					<path style="fill:#407BFF;" d="M330.573,211.209c-0.083-0.045-2.083-1.135-5.078-3.332l0.592-0.807
						c2.934,2.152,4.942,3.249,4.962,3.259L330.573,211.209z M322.317,205.399c-1.549-1.28-3.06-2.641-4.491-4.044l0.7-0.714
						c1.411,1.383,2.901,2.725,4.428,3.987L322.317,205.399z M315.031,198.451c-1.281-1.411-2.504-2.88-3.635-4.364l0.795-0.606
						c1.114,1.462,2.318,2.909,3.58,4.299L315.031,198.451z"/>
				</g>
			</g>
			<g style="opacity:0.3;">
				<g>
					<path d="M363.402,265.521l-0.001-1c1.944-0.002,3.925-0.136,5.887-0.398l0.133,0.99
						C367.415,265.383,365.39,265.519,363.402,265.521z M359.379,265.335c-2.035-0.191-4.039-0.534-5.955-1.018l0.245-0.969
						c1.867,0.472,3.819,0.805,5.804,0.991L359.379,265.335z M373.38,264.412l-0.216-0.977c1.914-0.423,3.823-0.972,5.675-1.632
						l0.336,0.941C377.284,263.419,375.335,263.98,373.38,264.412z M349.573,263.113c-1.918-0.721-3.752-1.605-5.451-2.629
						l0.516-0.858c1.648,0.993,3.427,1.851,5.287,2.551L349.573,263.113z M382.904,261.236l-0.413-0.91
						c1.8-0.816,3.552-1.751,5.206-2.778l0.527,0.85C386.533,259.448,384.743,260.403,382.904,261.236z M340.8,258.184
						c-0.851-0.676-1.676-1.405-2.453-2.168c-0.661-0.649-1.308-1.322-1.923-2l0.74-0.672c0.603,0.663,1.236,1.322,1.884,1.959
						c0.751,0.738,1.55,1.443,2.374,2.098L340.8,258.184z M391.543,256.122l-0.603-0.797c1.588-1.201,3.08-2.507,4.431-3.882
						l0.079-0.079l0.707,0.707l-0.072,0.073C394.698,253.553,393.171,254.892,391.543,256.122z M333.849,250.927
						c-1.233-1.617-2.353-3.311-3.328-5.033l0.87-0.492c0.953,1.683,2.047,3.338,3.253,4.918L333.849,250.927z M398.822,249.037
						l-0.787-0.617c1.231-1.569,2.308-3.225,3.199-4.922l0.886,0.465C401.2,245.714,400.091,247.421,398.822,249.037z
						 M328.709,242.297c-0.827-1.865-1.505-3.781-2.016-5.697l0.966-0.258c0.497,1.865,1.158,3.732,1.964,5.549L328.709,242.297z
						 M403.761,240.269l-0.938-0.346c0.674-1.834,1.164-3.743,1.457-5.674l0.988,0.15
						C404.966,236.397,404.459,238.372,403.761,240.269z M325.871,232.651c-0.251-1.681-0.379-3.379-0.379-5.049
						c0-0.331,0.005-0.661,0.015-0.992l1,0.03c-0.01,0.32-0.015,0.641-0.015,0.961c0,1.62,0.124,3.269,0.369,4.9L325.871,232.651z
						 M405.607,230.372l-1-0.02c0.003-0.178,0.005-0.357,0.005-0.537c0-1.749-0.153-3.537-0.457-5.312l0.985-0.169
						c0.313,1.831,0.472,3.676,0.471,5.481C405.612,230.001,405.61,230.186,405.607,230.372z M326.866,222.743l-0.988-0.154
						c0.311-1.995,0.813-3.969,1.494-5.868l0.941,0.338C327.654,218.898,327.167,220.81,326.866,222.743z M403.271,220.683
						c-0.538-1.844-1.243-3.695-2.093-5.502l0.905-0.426c0.873,1.854,1.595,3.754,2.148,5.648L403.271,220.683z M329.862,213.463
						l-0.893-0.452c0.899-1.774,1.978-3.5,3.207-5.13l0.799,0.603C331.78,210.066,330.733,211.741,329.862,213.463z
						 M399.337,211.708c-0.981-1.658-2.102-3.297-3.332-4.872l0.788-0.615c1.256,1.608,2.401,3.283,3.404,4.978L399.337,211.708z
						 M335.506,205.485l-0.729-0.684c0.194-0.207,0.392-0.412,0.591-0.616c1.197-1.218,2.498-2.38,3.869-3.457l0.617,0.786
						c-1.337,1.05-2.606,2.184-3.772,3.37C335.888,205.083,335.695,205.283,335.506,205.485z M393.458,203.831
						c-0.606-0.661-1.242-1.319-1.889-1.956c-0.75-0.738-1.548-1.447-2.372-2.107l0.626-0.78c0.849,0.681,1.672,1.413,2.447,2.175
						c0.66,0.648,1.308,1.319,1.925,1.993L393.458,203.831z M343.061,199.239l-0.54-0.842c1.675-1.074,3.456-2.049,5.293-2.899
						l0.42,0.907C346.437,197.236,344.697,198.19,343.061,199.239z M385.998,197.511c-1.645-1.016-3.413-1.899-5.253-2.627
						l0.367-0.93c1.895,0.749,3.715,1.659,5.411,2.706L385.998,197.511z M351.874,194.915l-0.338-0.941
						c1.888-0.677,3.839-1.235,5.8-1.659l0.211,0.978C355.63,193.706,353.721,194.252,351.874,194.915z M377.022,193.648
						c-1.863-0.508-3.809-0.876-5.784-1.096l0.11-0.994c2.026,0.226,4.023,0.604,5.936,1.126L377.022,193.648z M361.427,192.633
						l-0.123-0.992c1.803-0.224,3.626-0.338,5.419-0.338l0.607,0.004l-0.015,1l-0.592-0.004
						C364.971,192.303,363.189,192.415,361.427,192.633z"/>
				</g>
				<g>
					<path d="M330.573,211.209c-0.083-0.045-2.083-1.135-5.078-3.332l0.592-0.807c2.934,2.152,4.942,3.249,4.962,3.259
						L330.573,211.209z M322.317,205.399c-1.549-1.28-3.06-2.641-4.491-4.044l0.7-0.714c1.411,1.383,2.901,2.725,4.428,3.987
						L322.317,205.399z M315.031,198.451c-1.281-1.411-2.504-2.88-3.635-4.364l0.795-0.606c1.114,1.462,2.318,2.909,3.58,4.299
						L315.031,198.451z"/>
				</g>
			</g>
		</g>
		<g>
			<g>
				
					<rect x="344.014" y="196.494" transform="matrix(0.9808 0.1951 -0.1951 0.9808 50.8151 -67.0562)" style="fill:#407BFF;" width="43.615" height="55.886"/>
				
					<rect x="344.014" y="196.494" transform="matrix(0.9808 0.1951 -0.1951 0.9808 50.8151 -67.0562)" style="opacity:0.7;fill:#FFFFFF;" width="43.615" height="55.886"/>
				
					<rect x="351.769" y="201.526" transform="matrix(0.9808 0.1951 -0.1951 0.9808 48.2008 -67.8491)" style="fill:#407BFF;" width="33.542" height="18.486"/>
				<g>
					<path style="fill:#263238;" d="M381.534,226.607l-27.092-5.389c-0.508-0.101-1.001,0.229-1.102,0.736l0,0.001
						c-0.101,0.508,0.229,1.001,0.736,1.102l27.092,5.389c0.508,0.101,1.001-0.229,1.102-0.736l0-0.001
						C382.371,227.201,382.041,226.708,381.534,226.607z"/>
					<path style="fill:#263238;" d="M349.194,226.87l27.381,5.446c0.508,0.101,1.001-0.229,1.102-0.736l0-0.001
						c0.101-0.508-0.229-1.001-0.736-1.102l-27.381-5.446c-0.508-0.101-1.001,0.229-1.102,0.736l0,0.001
						C348.356,226.276,348.686,226.769,349.194,226.87z"/>
					<path style="fill:#263238;" d="M377.251,235.324l-28.607-5.69c-0.508-0.101-1.001,0.229-1.102,0.736l0,0.001
						c-0.101,0.508,0.229,1.001,0.736,1.102l28.607,5.69c0.508,0.101,1.001-0.229,1.102-0.736l0-0.001
						C378.088,235.918,377.758,235.425,377.251,235.324z"/>
					<path style="fill:#263238;" d="M377.561,240.17l-25.866-5.145c-0.508-0.101-1.001,0.229-1.102,0.736l0,0.001
						c-0.101,0.508,0.229,1.001,0.736,1.102l25.866,5.145c0.508,0.101,1.001-0.229,1.102-0.736l0-0.001
						C378.399,240.764,378.069,240.271,377.561,240.17z"/>
					<path style="fill:#263238;" d="M346.447,240.677l28.607,5.69c0.508,0.101,1.001-0.229,1.102-0.736l0-0.001
						c0.101-0.508-0.229-1.001-0.736-1.102l-28.607-5.69c-0.508-0.101-1.001,0.229-1.102,0.736l0,0.001
						C345.61,240.083,345.939,240.576,346.447,240.677z"/>
					<path style="fill:#263238;" d="M376.467,250.477c0.101-0.508-0.229-1.001-0.736-1.102l-29.833-5.934
						c-0.508-0.101-1.001,0.229-1.102,0.736c-0.101,0.508,0.229,1.001,0.736,1.102l29.833,5.934
						C375.872,251.314,376.366,250.984,376.467,250.477z"/>
				</g>
				<g style="opacity:0.5;">
					<path style="fill:#FFFFFF;" d="M381.534,226.607l-27.092-5.389c-0.508-0.101-1.001,0.229-1.102,0.736l0,0.001
						c-0.101,0.508,0.229,1.001,0.736,1.102l27.092,5.389c0.508,0.101,1.001-0.229,1.102-0.736l0-0.001
						C382.371,227.201,382.041,226.708,381.534,226.607z"/>
					<path style="fill:#FFFFFF;" d="M349.194,226.87l27.381,5.446c0.508,0.101,1.001-0.229,1.102-0.736l0-0.001
						c0.101-0.508-0.229-1.001-0.736-1.102l-27.381-5.446c-0.508-0.101-1.001,0.229-1.102,0.736l0,0.001
						C348.356,226.276,348.686,226.769,349.194,226.87z"/>
					<path style="fill:#FFFFFF;" d="M377.251,235.324l-28.607-5.69c-0.508-0.101-1.001,0.229-1.102,0.736l0,0.001
						c-0.101,0.508,0.229,1.001,0.736,1.102l28.607,5.69c0.508,0.101,1.001-0.229,1.102-0.736l0-0.001
						C378.088,235.918,377.758,235.425,377.251,235.324z"/>
					<path style="fill:#FFFFFF;" d="M377.561,240.17l-25.866-5.145c-0.508-0.101-1.001,0.229-1.102,0.736l0,0.001
						c-0.101,0.508,0.229,1.001,0.736,1.102l25.866,5.145c0.508,0.101,1.001-0.229,1.102-0.736l0-0.001
						C378.399,240.764,378.069,240.271,377.561,240.17z"/>
					<path style="fill:#FFFFFF;" d="M346.447,240.677l28.607,5.69c0.508,0.101,1.001-0.229,1.102-0.736l0-0.001
						c0.101-0.508-0.229-1.001-0.736-1.102l-28.607-5.69c-0.508-0.101-1.001,0.229-1.102,0.736l0,0.001
						C345.61,240.083,345.939,240.576,346.447,240.677z"/>
					<path style="fill:#FFFFFF;" d="M376.467,250.477c0.101-0.508-0.229-1.001-0.736-1.102l-29.833-5.934
						c-0.508-0.101-1.001,0.229-1.102,0.736c-0.101,0.508,0.229,1.001,0.736,1.102l29.833,5.934
						C375.872,251.314,376.366,250.984,376.467,250.477z"/>
				</g>
			</g>
			<path style="fill:#263238;" d="M389.127,214.137c-3.935-3.935-10.337-3.934-14.272,0c-3.935,3.935-3.935,10.337,0,14.271
				c3.754,3.754,9.748,3.918,13.708,0.509c-0.41,0.854-0.27,1.906,0.438,2.614l6.635,6.636c0.897,0.897,2.351,0.897,3.248,0
				c0.897-0.897,0.897-2.351,0-3.248l-6.635-6.635c-0.708-0.708-1.76-0.848-2.614-0.438
				C393.044,223.885,392.881,217.891,389.127,214.137z M387.713,226.995c-3.155,3.155-8.288,3.155-11.443,0
				c-3.155-3.155-3.155-8.288,0-11.443c3.155-3.155,8.288-3.155,11.443,0C390.868,218.706,390.868,223.84,387.713,226.995z"/>
		</g>
	</g>
</g>
<g id="Pictures">
	<g>
		<g>
			<g>
				<g>
					<path style="fill:#407BFF;" d="M387.362,156.551c-0.915,0-1.846-0.029-2.765-0.085l0.061-0.998
						c2.013,0.124,4.049,0.109,6.035-0.046l0.078,0.997C389.646,156.507,388.499,156.551,387.362,156.551z M380.502,156.023
						c-2.046-0.316-4.073-0.775-6.024-1.365l0.289-0.957c1.907,0.576,3.888,1.024,5.888,1.333L380.502,156.023z M394.859,155.901
						l-0.175-0.984c2.009-0.357,3.972-0.863,5.833-1.507l0.418,0.913l-0.096,0.033C398.933,155.016,396.919,155.536,394.859,155.901
						z M370.593,153.276c-1.94-0.801-3.795-1.744-5.514-2.804l0.524-0.852c1.673,1.032,3.481,1.95,5.371,2.73L370.593,153.276z
						 M404.746,152.745l-0.438-0.899c1.838-0.893,3.558-1.949,5.111-3.136l0.607,0.794
						C408.42,150.731,406.644,151.822,404.746,152.745z M361.694,148.099c-1.656-1.317-3.152-2.77-4.447-4.318l0.767-0.642
						c1.252,1.496,2.7,2.902,4.303,4.178L361.694,148.099z M413.125,146.758l-0.716-0.698c1.394-1.43,2.629-3.02,3.669-4.725
						l0.853,0.521C415.853,143.626,414.572,145.275,413.125,146.758z M354.831,140.417c-0.982-1.611-1.788-3.321-2.397-5.084
						l-0.188-0.558l0.949-0.314l0.184,0.545c0.585,1.695,1.361,3.34,2.306,4.89L354.831,140.417z M418.822,138.172l-0.921-0.391
						c0.767-1.81,1.356-3.739,1.75-5.734l0.981,0.194C420.225,134.303,419.616,136.299,418.822,138.172z M351.153,130.8
						c-0.449-2.038-0.731-4.1-0.839-6.127l0.999-0.053c0.105,1.973,0.38,3.98,0.817,5.965L351.153,130.8z M421.175,128.144
						l-0.998-0.069c0.056-0.791,0.084-1.597,0.084-2.397c0-1.191-0.062-2.409-0.183-3.619l0.995-0.1
						c0.124,1.243,0.187,2.494,0.188,3.719C421.261,126.501,421.232,127.331,421.175,128.144z M351.33,120.608l-0.998-0.063
						c0.133-2.088,0.457-4.147,0.962-6.12l0.969,0.248C351.772,116.585,351.459,118.582,351.33,120.608z M419.472,118.084
						c-0.366-1.794-0.866-3.612-1.485-5.404l-0.143-0.403l0.939-0.342l0.149,0.419c0.633,1.833,1.145,3.693,1.52,5.53
						L419.472,118.084z M353.509,110.869l-0.927-0.374c0.779-1.929,1.755-3.772,2.901-5.479l0.83,0.558
						C355.206,107.223,354.263,109.004,353.509,110.869z M416.2,108.639c-0.944-1.73-2.096-3.382-3.424-4.909l0.755-0.656
						c1.375,1.582,2.568,3.293,3.547,5.086L416.2,108.639z M358.771,102.42l-0.744-0.669c1.371-1.525,2.919-2.923,4.602-4.155
						l0.591,0.807C361.592,99.594,360.096,100.946,358.771,102.42z M409.952,100.892c-1.473-1.298-3.107-2.489-4.857-3.541
						l0.515-0.857c1.802,1.083,3.485,2.311,5.004,3.648L409.952,100.892z M366.597,96.253l-0.482-0.876
						c1.698-0.934,3.527-1.742,5.436-2.402l0.233-0.079l0.318,0.948l-0.224,0.076C370.023,94.563,368.246,95.347,366.597,96.253z
						 M401.54,95.475c-1.803-0.828-3.706-1.529-5.657-2.083l0.273-0.962c2,0.568,3.952,1.287,5.802,2.137L401.54,95.475z
						 M375.974,92.765l-0.217-0.977c1.988-0.441,4.046-0.734,6.119-0.871l0.065,0.998C379.919,92.048,377.912,92.335,375.974,92.765
						z M391.962,92.485c-1.975-0.356-3.994-0.57-6-0.636l0.033-0.999c2.054,0.067,4.121,0.286,6.144,0.65L391.962,92.485z"/>
				</g>
				<g>
					<path style="fill:#407BFF;" d="M337.67,151.706c-0.648,0-1.312-0.007-1.989-0.022l0.021-1c2.093,0.044,4.062,0.019,5.961-0.075
						l0.05,0.999C340.407,151.673,339.046,151.706,337.67,151.706z M345.728,151.297l-0.106-0.994
						c2.058-0.22,4.033-0.532,5.87-0.929l0.211,0.978C349.832,150.755,347.821,151.074,345.728,151.297z M355.614,149.321
						l-0.302-0.953c3.653-1.157,5.32-2.329,5.336-2.341l0.583,0.813C361.16,146.892,359.44,148.11,355.614,149.321z"/>
				</g>
			</g>
			<g style="opacity:0.3;">
				<g>
					<path d="M387.362,156.551c-0.915,0-1.846-0.029-2.765-0.085l0.061-0.998c2.013,0.124,4.049,0.109,6.035-0.046l0.078,0.997
						C389.646,156.507,388.499,156.551,387.362,156.551z M380.502,156.023c-2.046-0.316-4.073-0.775-6.024-1.365l0.289-0.957
						c1.907,0.576,3.888,1.024,5.888,1.333L380.502,156.023z M394.859,155.901l-0.175-0.984c2.009-0.357,3.972-0.863,5.833-1.507
						l0.418,0.913l-0.096,0.033C398.933,155.016,396.919,155.536,394.859,155.901z M370.593,153.276
						c-1.94-0.801-3.795-1.744-5.514-2.804l0.524-0.852c1.673,1.032,3.481,1.95,5.371,2.73L370.593,153.276z M404.746,152.745
						l-0.438-0.899c1.838-0.893,3.558-1.949,5.111-3.136l0.607,0.794C408.42,150.731,406.644,151.822,404.746,152.745z
						 M361.694,148.099c-1.656-1.317-3.152-2.77-4.447-4.318l0.767-0.642c1.252,1.496,2.7,2.902,4.303,4.178L361.694,148.099z
						 M413.125,146.758l-0.716-0.698c1.394-1.43,2.629-3.02,3.669-4.725l0.853,0.521
						C415.853,143.626,414.572,145.275,413.125,146.758z M354.831,140.417c-0.982-1.611-1.788-3.321-2.397-5.084l-0.188-0.558
						l0.949-0.314l0.184,0.545c0.585,1.695,1.361,3.34,2.306,4.89L354.831,140.417z M418.822,138.172l-0.921-0.391
						c0.767-1.81,1.356-3.739,1.75-5.734l0.981,0.194C420.225,134.303,419.616,136.299,418.822,138.172z M351.153,130.8
						c-0.449-2.038-0.731-4.1-0.839-6.127l0.999-0.053c0.105,1.973,0.38,3.98,0.817,5.965L351.153,130.8z M421.175,128.144
						l-0.998-0.069c0.056-0.791,0.084-1.597,0.084-2.397c0-1.191-0.062-2.409-0.183-3.619l0.995-0.1
						c0.124,1.243,0.187,2.494,0.188,3.719C421.261,126.501,421.232,127.331,421.175,128.144z M351.33,120.608l-0.998-0.063
						c0.133-2.088,0.457-4.147,0.962-6.12l0.969,0.248C351.772,116.585,351.459,118.582,351.33,120.608z M419.472,118.084
						c-0.366-1.794-0.866-3.612-1.485-5.404l-0.143-0.403l0.939-0.342l0.149,0.419c0.633,1.833,1.145,3.693,1.52,5.53
						L419.472,118.084z M353.509,110.869l-0.927-0.374c0.779-1.929,1.755-3.772,2.901-5.479l0.83,0.558
						C355.206,107.223,354.263,109.004,353.509,110.869z M416.2,108.639c-0.944-1.73-2.096-3.382-3.424-4.909l0.755-0.656
						c1.375,1.582,2.568,3.293,3.547,5.086L416.2,108.639z M358.771,102.42l-0.744-0.669c1.371-1.525,2.919-2.923,4.602-4.155
						l0.591,0.807C361.592,99.594,360.096,100.946,358.771,102.42z M409.952,100.892c-1.473-1.298-3.107-2.489-4.857-3.541
						l0.515-0.857c1.802,1.083,3.485,2.311,5.004,3.648L409.952,100.892z M366.597,96.253l-0.482-0.876
						c1.698-0.934,3.527-1.742,5.436-2.402l0.233-0.079l0.318,0.948l-0.224,0.076C370.023,94.563,368.246,95.347,366.597,96.253z
						 M401.54,95.475c-1.803-0.828-3.706-1.529-5.657-2.083l0.273-0.962c2,0.568,3.952,1.287,5.802,2.137L401.54,95.475z
						 M375.974,92.765l-0.217-0.977c1.988-0.441,4.046-0.734,6.119-0.871l0.065,0.998C379.919,92.048,377.912,92.335,375.974,92.765
						z M391.962,92.485c-1.975-0.356-3.994-0.57-6-0.636l0.033-0.999c2.054,0.067,4.121,0.286,6.144,0.65L391.962,92.485z"/>
				</g>
				<g>
					<path d="M337.67,151.706c-0.648,0-1.312-0.007-1.989-0.022l0.021-1c2.093,0.044,4.062,0.019,5.961-0.075l0.05,0.999
						C340.407,151.673,339.046,151.706,337.67,151.706z M345.728,151.297l-0.106-0.994c2.058-0.22,4.033-0.532,5.87-0.929
						l0.211,0.978C349.832,150.755,347.821,151.074,345.728,151.297z M355.614,149.321l-0.302-0.953
						c3.653-1.157,5.32-2.329,5.336-2.341l0.583,0.813C361.16,146.892,359.44,148.11,355.614,149.321z"/>
				</g>
			</g>
		</g>
		<g>
			<g>
				
					<rect x="354.887" y="103.338" transform="matrix(0.9239 -0.3827 0.3827 0.9239 -15.725 151.0722)" style="fill:#407BFF;" width="33.988" height="23.451"/>
				
					<rect x="354.887" y="103.338" transform="matrix(0.9239 -0.3827 0.3827 0.9239 -15.725 151.0722)" style="opacity:0.6;fill:#FFFFFF;" width="33.988" height="23.451"/>
				<g>
					<polygon style="fill:#407BFF;" points="361.96,131.741 365.78,118.018 378.184,125.021 					"/>
					<polygon style="opacity:0.3;fill:#FFFFFF;" points="361.96,131.741 365.78,118.018 378.184,125.021 					"/>
					<polygon style="fill:#407BFF;" points="368.815,128.902 374.06,110.058 391.093,119.674 					"/>
				</g>
				<path style="opacity:0.6;fill:#FFFFFF;" d="M365.031,112.156c0.615,1.486-0.09,3.189-1.576,3.805
					c-1.486,0.615-3.189-0.09-3.805-1.576c-0.616-1.486,0.09-3.189,1.576-3.805C362.712,109.965,364.415,110.67,365.031,112.156z"/>
			</g>
			<g>
				
					<rect x="381.003" y="129.767" transform="matrix(0.9808 0.1951 -0.1951 0.9808 34.7511 -74.3353)" style="fill:#407BFF;" width="27.487" height="18.965"/>
				
					<rect x="381.003" y="129.767" transform="matrix(0.9808 0.1951 -0.1951 0.9808 34.7511 -74.3353)" style="opacity:0.6;fill:#FFFFFF;" width="27.487" height="18.965"/>
				<g>
					<polygon style="fill:#407BFF;" points="380.581,146.007 389.316,138.495 394.511,148.777 					"/>
					<polygon style="opacity:0.3;fill:#FFFFFF;" points="380.581,146.007 389.316,138.495 394.511,148.777 					"/>
					<polygon style="fill:#407BFF;" points="386.467,147.177 398.46,136.863 405.593,150.982 					"/>
				</g>
				<path style="opacity:0.6;fill:#FFFFFF;" d="M391.446,134.217c-0.254,1.276-1.494,2.104-2.769,1.85
					c-1.276-0.254-2.104-1.493-1.85-2.769c0.254-1.276,1.494-2.104,2.769-1.85C390.871,131.701,391.7,132.941,391.446,134.217z"/>
			</g>
		</g>
	</g>
</g>
<g id="Chart">
	<g>
		<g>
			<g>
				<g>
					<path style="fill:#407BFF;" d="M146.966,257.464c-0.957,0-1.936-0.032-2.912-0.096l0.065-0.998
						c2.015,0.132,4.011,0.123,5.973-0.022l0.074,0.998C149.109,257.424,148.032,257.464,146.966,257.464z M140.003,256.914
						c-2.019-0.319-4.023-0.778-5.958-1.363l0.289-0.957c1.892,0.572,3.851,1.021,5.825,1.332L140.003,256.914z M154.215,256.844
						l-0.172-0.984c1.989-0.348,3.931-0.847,5.773-1.483l0.098-0.034l0.32,0.947l-0.082,0.028
						C158.251,255.975,156.256,256.487,154.215,256.844z M130.198,254.191c-1.913-0.78-3.756-1.696-5.478-2.724l0.513-0.859
						c1.679,1.002,3.477,1.896,5.344,2.657L130.198,254.191z M164.013,253.72l-0.438-0.898c1.813-0.886,3.513-1.935,5.05-3.116
						l0.609,0.793C167.644,251.721,165.887,252.805,164.013,253.72z M121.328,249.189c-1.662-1.254-3.192-2.636-4.548-4.107
						l0.735-0.678c1.315,1.428,2.801,2.769,4.415,3.986L121.328,249.189z M172.296,247.773l-0.717-0.697
						c1.373-1.414,2.596-2.987,3.634-4.677l0.853,0.523C174.99,244.674,173.722,246.306,172.296,247.773z M114.207,241.9
						c-1.189-1.689-2.196-3.493-2.992-5.359l0.92-0.393c0.769,1.803,1.741,3.544,2.89,5.176L114.207,241.9z M177.956,239.287
						l-0.917-0.398c0.772-1.78,1.38-3.685,1.807-5.657l0.977,0.211C179.383,235.48,178.754,237.446,177.956,239.287z
						 M109.857,232.686c-0.584-1.977-1.027-3.985-1.318-5.969l0.989-0.145c0.284,1.938,0.718,3.9,1.288,5.831L109.857,232.686z
						 M180.446,229.402l-0.995-0.095c0.107-1.128,0.162-2.29,0.162-3.452c0-0.831-0.028-1.675-0.082-2.508l0.998-0.064
						c0.055,0.854,0.084,1.72,0.084,2.572C180.613,227.049,180.557,228.243,180.446,229.402z M108.148,222.654
						c-0.026-0.583-0.039-1.164-0.039-1.743c0-1.473,0.086-2.945,0.256-4.375l0.993,0.118c-0.165,1.391-0.249,2.823-0.249,4.257
						c0,0.563,0.013,1.129,0.038,1.698L108.148,222.654z M179.083,219.391c-0.311-1.927-0.764-3.887-1.345-5.825l0.958-0.287
						c0.593,1.98,1.056,3.983,1.374,5.953L179.083,219.391z M110.056,212.743l-0.973-0.233c0.484-2.014,1.151-3.966,1.983-5.803
						l0.911,0.412C111.171,208.898,110.524,210.79,110.056,212.743z M176.417,209.815c-0.765-1.812-1.724-3.564-2.848-5.206
						l0.825-0.564c1.162,1.698,2.152,3.508,2.943,5.382L176.417,209.815z M113.847,203.627l-0.848-0.53
						c1.088-1.741,2.358-3.37,3.772-4.842l0.721,0.693C116.126,200.371,114.899,201.945,113.847,203.627z M171.126,201.49
						c-1.299-1.458-2.761-2.825-4.344-4.066l0.617-0.787c1.629,1.277,3.134,2.686,4.473,4.188L171.126,201.49z M120.424,196.288
						l-0.62-0.784c1.582-1.251,3.32-2.364,5.164-3.309l0.456,0.89C123.638,194,121.956,195.078,120.424,196.288z M163.522,195.149
						c-1.667-1.032-3.451-1.952-5.302-2.733l0.389-0.921c1.899,0.801,3.729,1.745,5.439,2.804L163.522,195.149z M129.058,191.491
						l-0.347-0.938c0.247-0.091,0.495-0.18,0.745-0.267c1.662-0.574,3.395-1.037,5.152-1.376l0.189,0.981
						c-1.711,0.331-3.398,0.782-5.015,1.34C129.54,191.315,129.297,191.402,129.058,191.491z M154.479,191.051
						c-1.894-0.588-3.85-1.044-5.815-1.354l0.156-0.987c2.012,0.318,4.016,0.785,5.956,1.387L154.479,191.051z M138.738,189.341
						l-0.088-0.996c1.178-0.104,2.378-0.156,3.566-0.156c0.887,0.028,1.705,0.025,2.549,0.077l-0.061,0.998
						c-0.825-0.05-1.659-0.088-2.489-0.075C141.057,189.189,139.887,189.24,138.738,189.341z"/>
				</g>
				<g>
					<path style="fill:#407BFF;" d="M166.175,194.842l-0.449-0.894c0.02-0.01,1.997-1.01,5.133-3.021l0.54,0.842
						C168.215,193.811,166.257,194.801,166.175,194.842z M174.74,189.529l-0.573-0.819c1.605-1.122,3.221-2.319,4.802-3.557
						l0.616,0.787C177.989,187.189,176.359,188.396,174.74,189.529z M182.705,183.407l-0.644-0.766
						c1.517-1.276,3.021-2.61,4.47-3.964l0.683,0.73C185.752,180.774,184.235,182.12,182.705,183.407z M190.101,176.612
						l-0.708-0.706c1.409-1.413,2.789-2.874,4.103-4.341l0.745,0.667C192.915,173.712,191.523,175.186,190.101,176.612z"/>
				</g>
			</g>
			<g style="opacity:0.3;">
				<g>
					<path d="M146.966,257.464c-0.957,0-1.936-0.032-2.912-0.096l0.065-0.998c2.015,0.132,4.011,0.123,5.973-0.022l0.074,0.998
						C149.109,257.424,148.032,257.464,146.966,257.464z M140.003,256.914c-2.019-0.319-4.023-0.778-5.958-1.363l0.289-0.957
						c1.892,0.572,3.851,1.021,5.825,1.332L140.003,256.914z M154.215,256.844l-0.172-0.984c1.989-0.348,3.931-0.847,5.773-1.483
						l0.098-0.034l0.32,0.947l-0.082,0.028C158.251,255.975,156.256,256.487,154.215,256.844z M130.198,254.191
						c-1.913-0.78-3.756-1.696-5.478-2.724l0.513-0.859c1.679,1.002,3.477,1.896,5.344,2.657L130.198,254.191z M164.013,253.72
						l-0.438-0.898c1.813-0.886,3.513-1.935,5.05-3.116l0.609,0.793C167.644,251.721,165.887,252.805,164.013,253.72z
						 M121.328,249.189c-1.662-1.254-3.192-2.636-4.548-4.107l0.735-0.678c1.315,1.428,2.801,2.769,4.415,3.986L121.328,249.189z
						 M172.296,247.773l-0.717-0.697c1.373-1.414,2.596-2.987,3.634-4.677l0.853,0.523
						C174.99,244.674,173.722,246.306,172.296,247.773z M114.207,241.9c-1.189-1.689-2.196-3.493-2.992-5.359l0.92-0.393
						c0.769,1.803,1.741,3.544,2.89,5.176L114.207,241.9z M177.956,239.287l-0.917-0.398c0.772-1.78,1.38-3.685,1.807-5.657
						l0.977,0.211C179.383,235.48,178.754,237.446,177.956,239.287z M109.857,232.686c-0.584-1.977-1.027-3.985-1.318-5.969
						l0.989-0.145c0.284,1.938,0.718,3.9,1.288,5.831L109.857,232.686z M180.446,229.402l-0.995-0.095
						c0.107-1.128,0.162-2.29,0.162-3.452c0-0.831-0.028-1.675-0.082-2.508l0.998-0.064c0.055,0.854,0.084,1.72,0.084,2.572
						C180.613,227.049,180.557,228.243,180.446,229.402z M108.148,222.654c-0.026-0.583-0.039-1.164-0.039-1.743
						c0-1.473,0.086-2.945,0.256-4.375l0.993,0.118c-0.165,1.391-0.249,2.823-0.249,4.257c0,0.563,0.013,1.129,0.038,1.698
						L108.148,222.654z M179.083,219.391c-0.311-1.927-0.764-3.887-1.345-5.825l0.958-0.287c0.593,1.98,1.056,3.983,1.374,5.953
						L179.083,219.391z M110.056,212.743l-0.973-0.233c0.484-2.014,1.151-3.966,1.983-5.803l0.911,0.412
						C111.171,208.898,110.524,210.79,110.056,212.743z M176.417,209.815c-0.765-1.812-1.724-3.564-2.848-5.206l0.825-0.564
						c1.162,1.698,2.152,3.508,2.943,5.382L176.417,209.815z M113.847,203.627l-0.848-0.53c1.088-1.741,2.358-3.37,3.772-4.842
						l0.721,0.693C116.126,200.371,114.899,201.945,113.847,203.627z M171.126,201.49c-1.299-1.458-2.761-2.825-4.344-4.066
						l0.617-0.787c1.629,1.277,3.134,2.686,4.473,4.188L171.126,201.49z M120.424,196.288l-0.62-0.784
						c1.582-1.251,3.32-2.364,5.164-3.309l0.456,0.89C123.638,194,121.956,195.078,120.424,196.288z M163.522,195.149
						c-1.667-1.032-3.451-1.952-5.302-2.733l0.389-0.921c1.899,0.801,3.729,1.745,5.439,2.804L163.522,195.149z M129.058,191.491
						l-0.347-0.938c0.247-0.091,0.495-0.18,0.745-0.267c1.662-0.574,3.395-1.037,5.152-1.376l0.189,0.981
						c-1.711,0.331-3.398,0.782-5.015,1.34C129.54,191.315,129.297,191.402,129.058,191.491z M154.479,191.051
						c-1.894-0.588-3.85-1.044-5.815-1.354l0.156-0.987c2.012,0.318,4.016,0.785,5.956,1.387L154.479,191.051z M138.738,189.341
						l-0.088-0.996c1.178-0.104,2.378-0.156,3.566-0.156c0.887,0.028,1.705,0.025,2.549,0.077l-0.061,0.998
						c-0.825-0.05-1.659-0.088-2.489-0.075C141.057,189.189,139.887,189.24,138.738,189.341z"/>
				</g>
				<g>
					<path d="M166.175,194.842l-0.449-0.894c0.02-0.01,1.997-1.01,5.133-3.021l0.54,0.842
						C168.215,193.811,166.257,194.801,166.175,194.842z M174.74,189.529l-0.573-0.819c1.605-1.122,3.221-2.319,4.802-3.557
						l0.616,0.787C177.989,187.189,176.359,188.396,174.74,189.529z M182.705,183.407l-0.644-0.766
						c1.517-1.276,3.021-2.61,4.47-3.964l0.683,0.73C185.752,180.774,184.235,182.12,182.705,183.407z M190.101,176.612
						l-0.708-0.706c1.409-1.413,2.789-2.874,4.103-4.341l0.745,0.667C192.915,173.712,191.523,175.186,190.101,176.612z"/>
				</g>
			</g>
		</g>
		<g>
			<rect x="117.583" y="222.991" style="fill:#407BFF;" width="6.289" height="6.289"/>
			<rect x="130.162" y="216.702" style="fill:#407BFF;" width="6.289" height="12.578"/>
			<rect x="142.74" y="211.122" style="fill:#407BFF;" width="6.289" height="18.158"/>
			<rect x="155.319" y="205.399" style="fill:#407BFF;" width="6.289" height="23.882"/>
			<rect x="130.162" y="216.702" style="opacity:0.5;fill:#FFFFFF;" width="6.289" height="12.578"/>
			<rect x="155.319" y="205.399" style="opacity:0.5;fill:#FFFFFF;" width="6.289" height="23.882"/>
			<g>
				<g>
					<polygon style="fill:#407BFF;" points="166.119,233.654 117.583,233.654 117.583,232.397 164.862,232.397 164.862,205.399 
						166.119,205.399 					"/>
				</g>
				<g style="opacity:0.5;">
					<polygon style="fill:#FFFFFF;" points="166.119,233.654 117.583,233.654 117.583,232.397 164.862,232.397 164.862,205.399 
						166.119,205.399 					"/>
				</g>
			</g>
		</g>
	</g>
</g>
<g id="Speech_bubbles">
	<g>
		<g>
			<g>
				<g>
					<path style="fill:#407BFF;" d="M120.501,163.689c-1.115,0-2.238-0.046-3.339-0.136l0.082-0.997
						c1.941,0.16,3.945,0.2,5.895-0.007l0.106,0.994C122.338,163.64,121.415,163.689,120.501,163.689z M113.148,163.012
						c-2.02-0.381-3.99-0.927-5.855-1.622l0.35-0.938c1.812,0.676,3.727,1.206,5.691,1.577L113.148,163.012z M127.245,162.799
						l-0.257-0.967c1.858-0.494,3.702-1.208,5.482-2.121l0.457,0.89C131.084,161.547,129.172,162.287,127.245,162.799z
						 M103.584,159.746c-1.831-0.952-3.546-2.071-5.099-3.328l0.629-0.777c1.501,1.214,3.16,2.296,4.931,3.217L103.584,159.746z
						 M136.412,158.515l-0.567-0.823c1.589-1.095,3.12-2.363,4.549-3.769l0.701,0.713
						C139.624,156.083,138.048,157.388,136.412,158.515z M95.514,153.642c-1.39-1.501-2.606-3.152-3.615-4.909l0.867-0.498
						c0.972,1.691,2.143,3.282,3.481,4.727L95.514,153.642z M143.828,151.642l-0.773-0.634c1.24-1.512,2.381-3.144,3.393-4.852
						l0.86,0.51C146.27,148.417,145.1,150.091,143.828,151.642z M90.144,145.061c-0.725-1.867-1.252-3.848-1.569-5.886l0.988-0.153
						c0.306,1.967,0.815,3.877,1.514,5.678L90.144,145.061z M149.194,143.083l-0.907-0.421c0.836-1.8,1.537-3.664,2.081-5.54
						l0.96,0.278C150.77,139.326,150.052,141.238,149.194,143.083z M88.222,135.131c-0.005-0.242-0.008-0.485-0.008-0.729
						c0-1.763,0.143-3.558,0.425-5.337l0.987,0.156c-0.273,1.727-0.412,3.47-0.412,5.18c0,0.236,0.002,0.472,0.008,0.706
						L88.222,135.131z M152.248,133.455l-0.984-0.174c0.348-1.97,0.525-3.948,0.525-5.879l-0.001-0.117h1l0.001,0.11
						C152.788,129.392,152.606,131.428,152.248,133.455z M90.464,125.371l-0.964-0.267c0.536-1.936,1.239-3.855,2.09-5.703
						l0.908,0.418C91.67,121.619,90.985,123.487,90.464,125.371z M151.52,123.368c-0.269-1.983-0.748-3.899-1.422-5.695l0.937-0.352
						c0.7,1.866,1.197,3.854,1.477,5.912L151.52,123.368z M94.336,116.327l-0.859-0.512c1.04-1.746,2.222-3.413,3.513-4.955
						l0.767,0.642C96.499,113.003,95.349,114.627,94.336,116.327z M148.436,114.131c-0.965-1.688-2.143-3.27-3.502-4.7l0.726-0.688
						c1.413,1.488,2.64,3.134,3.645,4.892L148.436,114.131z M100.452,108.622l-0.691-0.723c1.487-1.422,3.084-2.701,4.746-3.802
						l0.552,0.834C103.446,105.999,101.896,107.241,100.452,108.622z M142.026,106.804c-1.514-1.176-3.197-2.22-5.001-3.104
						l0.44-0.898c1.865,0.914,3.606,1.995,5.174,3.212L142.026,106.804z M108.468,102.971l-0.441-0.897
						c1.848-0.908,3.77-1.618,5.711-2.111l0.246,0.97C112.109,101.408,110.253,102.094,108.468,102.971z M133.391,102.189
						c-1.815-0.631-3.741-1.126-5.725-1.47l0.171-0.985c2.037,0.354,4.016,0.862,5.882,1.511L133.391,102.189z M117.845,100.249
						l-0.102-0.995c2.016-0.206,4.086-0.167,6.078-0.016l-0.075,0.997C121.813,100.09,119.802,100.051,117.845,100.249z"/>
				</g>
				<g>
					<path style="fill:#407BFF;" d="M169.616,157.015c-1.97-0.035-4.001-0.171-6.035-0.407l0.115-0.993
						c2.001,0.232,3.999,0.367,5.937,0.4L169.616,157.015z M173.65,156.94l-0.055-0.998c2.007-0.111,3.991-0.338,5.896-0.676
						l0.175,0.984C177.722,156.595,175.698,156.827,173.65,156.94z M159.593,156.023c-1.958-0.346-3.943-0.784-5.902-1.302
						l0.256-0.967c1.932,0.511,3.89,0.943,5.82,1.284L159.593,156.023z M183.612,155.372l-0.261-0.966
						c1.364-0.368,2.714-0.805,4.012-1.299l0.355,0.935C186.39,154.547,185.008,154.995,183.612,155.372z M149.825,153.584
						c-3.505-1.137-5.59-2.109-5.677-2.15l0.425-0.905c0.021,0.01,2.121,0.988,5.561,2.104L149.825,153.584z"/>
				</g>
			</g>
			<g style="opacity:0.3;">
				<g>
					<path d="M120.501,163.689c-1.115,0-2.238-0.046-3.339-0.136l0.082-0.997c1.941,0.16,3.945,0.2,5.895-0.007l0.106,0.994
						C122.338,163.64,121.415,163.689,120.501,163.689z M113.148,163.012c-2.02-0.381-3.99-0.927-5.855-1.622l0.35-0.938
						c1.812,0.676,3.727,1.206,5.691,1.577L113.148,163.012z M127.245,162.799l-0.257-0.967c1.858-0.494,3.702-1.208,5.482-2.121
						l0.457,0.89C131.084,161.547,129.172,162.287,127.245,162.799z M103.584,159.746c-1.831-0.952-3.546-2.071-5.099-3.328
						l0.629-0.777c1.501,1.214,3.16,2.296,4.931,3.217L103.584,159.746z M136.412,158.515l-0.567-0.823
						c1.589-1.095,3.12-2.363,4.549-3.769l0.701,0.713C139.624,156.083,138.048,157.388,136.412,158.515z M95.514,153.642
						c-1.39-1.501-2.606-3.152-3.615-4.909l0.867-0.498c0.972,1.691,2.143,3.282,3.481,4.727L95.514,153.642z M143.828,151.642
						l-0.773-0.634c1.24-1.512,2.381-3.144,3.393-4.852l0.86,0.51C146.27,148.417,145.1,150.091,143.828,151.642z M90.144,145.061
						c-0.725-1.867-1.252-3.848-1.569-5.886l0.988-0.153c0.306,1.967,0.815,3.877,1.514,5.678L90.144,145.061z M149.194,143.083
						l-0.907-0.421c0.836-1.8,1.537-3.664,2.081-5.54l0.96,0.278C150.77,139.326,150.052,141.238,149.194,143.083z M88.222,135.131
						c-0.005-0.242-0.008-0.485-0.008-0.729c0-1.763,0.143-3.558,0.425-5.337l0.987,0.156c-0.273,1.727-0.412,3.47-0.412,5.18
						c0,0.236,0.002,0.472,0.008,0.706L88.222,135.131z M152.248,133.455l-0.984-0.174c0.348-1.97,0.525-3.948,0.525-5.879
						l-0.001-0.117h1l0.001,0.11C152.788,129.392,152.606,131.428,152.248,133.455z M90.464,125.371l-0.964-0.267
						c0.536-1.936,1.239-3.855,2.09-5.703l0.908,0.418C91.67,121.619,90.985,123.487,90.464,125.371z M151.52,123.368
						c-0.269-1.983-0.748-3.899-1.422-5.695l0.937-0.352c0.7,1.866,1.197,3.854,1.477,5.912L151.52,123.368z M94.336,116.327
						l-0.859-0.512c1.04-1.746,2.222-3.413,3.513-4.955l0.767,0.642C96.499,113.003,95.349,114.627,94.336,116.327z
						 M148.436,114.131c-0.965-1.688-2.143-3.27-3.502-4.7l0.726-0.688c1.413,1.488,2.64,3.134,3.645,4.892L148.436,114.131z
						 M100.452,108.622l-0.691-0.723c1.487-1.422,3.084-2.701,4.746-3.802l0.552,0.834
						C103.446,105.999,101.896,107.241,100.452,108.622z M142.026,106.804c-1.514-1.176-3.197-2.22-5.001-3.104l0.44-0.898
						c1.865,0.914,3.606,1.995,5.174,3.212L142.026,106.804z M108.468,102.971l-0.441-0.897c1.848-0.908,3.77-1.618,5.711-2.111
						l0.246,0.97C112.109,101.408,110.253,102.094,108.468,102.971z M133.391,102.189c-1.815-0.631-3.741-1.126-5.725-1.47
						l0.171-0.985c2.037,0.354,4.016,0.862,5.882,1.511L133.391,102.189z M117.845,100.249l-0.102-0.995
						c2.016-0.206,4.086-0.167,6.078-0.016l-0.075,0.997C121.813,100.09,119.802,100.051,117.845,100.249z"/>
				</g>
				<g>
					<path d="M169.616,157.015c-1.97-0.035-4.001-0.171-6.035-0.407l0.115-0.993c2.001,0.232,3.999,0.367,5.937,0.4L169.616,157.015
						z M173.65,156.94l-0.055-0.998c2.007-0.111,3.991-0.338,5.896-0.676l0.175,0.984
						C177.722,156.595,175.698,156.827,173.65,156.94z M159.593,156.023c-1.958-0.346-3.943-0.784-5.902-1.302l0.256-0.967
						c1.932,0.511,3.89,0.943,5.82,1.284L159.593,156.023z M183.612,155.372l-0.261-0.966c1.364-0.368,2.714-0.805,4.012-1.299
						l0.355,0.935C186.39,154.547,185.008,154.995,183.612,155.372z M149.825,153.584c-3.505-1.137-5.59-2.109-5.677-2.15
						l0.425-0.905c0.021,0.01,2.121,0.988,5.561,2.104L149.825,153.584z"/>
				</g>
			</g>
		</g>
		<g>
			<g>
				<path style="fill:#407BFF;" d="M128.251,123.608c0-7.185-8.785-13.009-19.621-13.009c-10.836,0-19.621,5.824-19.621,13.009
					c0,7.185,8.785,13.009,19.621,13.009c1.874,0,3.685-0.178,5.401-0.503c2.163,2.383,5.275,3.889,8.746,3.889
					c0.012,0,0.024,0,0.036,0c1.002-0.003,1.375-1.338,0.533-1.881c-1.489-0.961-2.745-2.249-3.674-3.76
					C124.85,132.02,128.251,128.078,128.251,123.608z"/>
				<g>
					<path style="fill:#FFFFFF;" d="M99.212,124.324c0,1.057-0.857,1.914-1.914,1.914c-1.057,0-1.914-0.857-1.914-1.914
						s0.857-1.914,1.914-1.914C98.355,122.41,99.212,123.267,99.212,124.324z"/>
					<path style="fill:#FFFFFF;" d="M106.946,124.324c0,1.057-0.857,1.914-1.914,1.914s-1.914-0.857-1.914-1.914
						s0.857-1.914,1.914-1.914S106.946,123.267,106.946,124.324z"/>
					<path style="fill:#FFFFFF;" d="M114.681,124.324c0,1.057-0.857,1.914-1.914,1.914s-1.914-0.857-1.914-1.914
						s0.857-1.914,1.914-1.914S114.681,123.267,114.681,124.324z"/>
					<path style="fill:#FFFFFF;" d="M122.415,124.324c0,1.057-0.857,1.914-1.914,1.914s-1.914-0.857-1.914-1.914
						s0.857-1.914,1.914-1.914S122.415,123.267,122.415,124.324z"/>
				</g>
			</g>
			<g>
				<path style="fill:#407BFF;" d="M126.521,135.831c0-4.826,5.9-8.738,13.178-8.738c7.278,0,13.178,3.912,13.178,8.738
					c0,4.826-5.9,8.738-13.178,8.738c-1.259,0-2.475-0.12-3.628-0.338c-1.452,1.601-3.543,2.612-5.874,2.612
					c-0.008,0-0.016,0-0.024,0c-0.673-0.002-0.924-0.898-0.358-1.263c1-0.645,1.844-1.511,2.468-2.525
					C128.805,141.481,126.521,138.833,126.521,135.831z"/>
				<path style="opacity:0.6;fill:#FFFFFF;" d="M126.521,135.831c0-4.826,5.9-8.738,13.178-8.738c7.278,0,13.178,3.912,13.178,8.738
					c0,4.826-5.9,8.738-13.178,8.738c-1.259,0-2.475-0.12-3.628-0.338c-1.452,1.601-3.543,2.612-5.874,2.612
					c-0.008,0-0.016,0-0.024,0c-0.673-0.002-0.924-0.898-0.358-1.263c1-0.645,1.844-1.511,2.468-2.525
					C128.805,141.481,126.521,138.833,126.521,135.831z"/>
				<g>
					<path style="fill:#407BFF;" d="M132.263,135.576c0,0.777-0.63,1.407-1.407,1.407c-0.777,0-1.407-0.63-1.407-1.407
						c0-0.777,0.63-1.407,1.407-1.407C131.633,134.169,132.263,134.799,132.263,135.576z"/>
					<path style="fill:#407BFF;" d="M137.947,135.576c0,0.777-0.63,1.407-1.407,1.407s-1.407-0.63-1.407-1.407
						c0-0.777,0.63-1.407,1.407-1.407S137.947,134.799,137.947,135.576z"/>
					<path style="fill:#407BFF;" d="M143.63,135.576c0,0.777-0.63,1.407-1.407,1.407c-0.777,0-1.407-0.63-1.407-1.407
						c0-0.777,0.63-1.407,1.407-1.407C143.001,134.169,143.63,134.799,143.63,135.576z"/>
					<path style="fill:#407BFF;" d="M149.314,135.576c0,0.777-0.63,1.407-1.407,1.407c-0.777,0-1.407-0.63-1.407-1.407
						c0-0.777,0.63-1.407,1.407-1.407C148.684,134.169,149.314,134.799,149.314,135.576z"/>
				</g>
			</g>
		</g>
	</g>
</g>
<g id="Shape">
	<g>
		<path style="fill:#407BFF;" d="M286.775,218.204l4.328,26.799l-19.914-6.406c0,0-11.115-38.434-28.713-47.829
			c0,0-28.25,0.427-32.418-19.644c0,0-43.996,8.114-43.996-25.195c0-33.309,27.621-70.462,94.012-70.462
			c72.299,0,91.233,71.316,76.877,89.252c0,0,9.439,31.914-38.732,38.927C290.73,204.737,285.658,211.289,286.775,218.204z"/>
		<path style="opacity:0.4;fill:#FFFFFF;" d="M286.775,218.204l4.328,26.799l-19.914-6.406c0,0-11.115-38.434-28.713-47.829
			c0,0-28.25,0.427-32.418-19.644c0,0-43.996,8.114-43.996-25.195c0-33.309,27.621-70.462,94.012-70.462
			c72.299,0,91.233,71.316,76.877,89.252c0,0,9.439,31.914-38.732,38.927C290.73,204.737,285.658,211.289,286.775,218.204z"/>
	</g>
</g>
<g id="Gears">
	<g>
		<path style="fill:#263238;" d="M316.92,121.086c0.108-0.894,0.171-1.802,0.171-2.725c0-0.923-0.063-1.831-0.171-2.725
			l-5.301-1.885c-0.394-1.448-0.962-2.821-1.692-4.094l2.413-5.076c-1.124-1.436-2.418-2.73-3.854-3.854l-5.076,2.413
			c-1.273-0.73-2.646-1.298-4.095-1.692l-1.885-5.301c-0.894-0.108-1.802-0.171-2.725-0.171s-1.831,0.063-2.725,0.171l-1.885,5.301
			c-1.448,0.394-2.821,0.962-4.095,1.692l-5.076-2.413c-1.436,1.124-2.73,2.418-3.854,3.854l2.413,5.076
			c-0.73,1.273-1.298,2.646-1.692,4.094l-5.301,1.885c-0.108,0.894-0.171,1.802-0.171,2.725c0,0.923,0.063,1.831,0.171,2.725
			l5.301,1.885c0.394,1.448,0.962,2.821,1.692,4.094l-2.413,5.076c1.124,1.436,2.418,2.73,3.854,3.854l5.076-2.413
			c1.273,0.73,2.646,1.298,4.095,1.692l1.885,5.301c0.894,0.109,1.802,0.171,2.725,0.171s1.831-0.063,2.725-0.171l1.885-5.301
			c1.448-0.394,2.821-0.962,4.095-1.692l5.076,2.413c1.436-1.124,2.73-2.418,3.854-3.854l-2.413-5.076
			c0.73-1.273,1.298-2.646,1.692-4.094L316.92,121.086z M294.705,127.721c-5.169,0-9.36-4.19-9.36-9.36c0-5.169,4.19-9.36,9.36-9.36
			s9.36,4.19,9.36,9.36C304.065,123.531,299.874,127.721,294.705,127.721z"/>
		<path style="fill:#263238;" d="M315.5,155.618c0.047-0.47,0.072-0.946,0.072-1.429c0-0.482-0.025-0.959-0.072-1.429l-4.814-1.167
			c-0.204-0.724-0.488-1.413-0.848-2.055l2.575-4.223c-0.604-0.741-1.281-1.418-2.022-2.022l-4.223,2.575
			c-0.643-0.36-1.332-0.644-2.055-0.848l-1.167-4.814c-0.47-0.048-0.946-0.072-1.429-0.072c-0.482,0-0.959,0.025-1.429,0.072
			l-1.167,4.814c-0.724,0.204-1.413,0.488-2.055,0.848l-4.223-2.575c-0.741,0.604-1.418,1.281-2.022,2.022l2.575,4.223
			c-0.36,0.643-0.643,1.332-0.848,2.055l-4.814,1.167c-0.047,0.47-0.072,0.946-0.072,1.429c0,0.482,0.025,0.959,0.072,1.429
			l4.814,1.167c0.205,0.724,0.488,1.413,0.848,2.055l-2.575,4.223c0.604,0.741,1.281,1.418,2.022,2.022l4.223-2.575
			c0.643,0.36,1.332,0.644,2.055,0.848l1.167,4.814c0.47,0.048,0.946,0.072,1.429,0.072c0.482,0,0.959-0.025,1.429-0.072
			l1.167-4.814c0.724-0.204,1.413-0.488,2.055-0.848l4.223,2.575c0.741-0.604,1.418-1.281,2.022-2.022l-2.575-4.223
			c0.36-0.643,0.644-1.332,0.848-2.055L315.5,155.618z M301.517,158.109c-2.165,0-3.92-1.755-3.92-3.92s1.755-3.92,3.92-3.92
			c2.165,0,3.92,1.755,3.92,3.92S303.682,158.109,301.517,158.109z"/>
		<path style="fill:#263238;" d="M277.307,101.166c0.039-0.383,0.059-0.772,0.059-1.166s-0.02-0.782-0.059-1.166l-3.928-0.952
			c-0.167-0.59-0.398-1.153-0.692-1.677l2.101-3.445c-0.493-0.604-1.046-1.157-1.65-1.65l-3.445,2.101
			c-0.524-0.294-1.086-0.525-1.677-0.692l-0.952-3.928c-0.383-0.039-0.772-0.059-1.166-0.059c-0.394,0-0.782,0.02-1.166,0.059
			l-0.952,3.928c-0.59,0.167-1.152,0.398-1.677,0.692l-3.445-2.101c-0.604,0.493-1.157,1.045-1.65,1.65l2.101,3.445
			c-0.294,0.524-0.525,1.087-0.692,1.677l-3.928,0.952c-0.039,0.383-0.059,0.772-0.059,1.166s0.02,0.782,0.059,1.166l3.928,0.952
			c0.167,0.59,0.398,1.153,0.692,1.677l-2.101,3.445c0.493,0.604,1.045,1.157,1.65,1.65l3.445-2.101
			c0.524,0.294,1.087,0.525,1.677,0.692l0.952,3.928c0.383,0.039,0.772,0.059,1.166,0.059c0.394,0,0.782-0.02,1.166-0.059
			l0.952-3.928c0.59-0.167,1.152-0.398,1.677-0.692l3.445,2.101c0.604-0.493,1.157-1.045,1.65-1.65l-2.101-3.445
			c0.294-0.524,0.525-1.087,0.692-1.677L277.307,101.166z M265.899,103.198c-1.766,0-3.198-1.432-3.198-3.198
			s1.432-3.198,3.198-3.198s3.198,1.432,3.198,3.198S267.665,103.198,265.899,103.198z"/>
	</g>
</g>
<g id="Light_bulb">
	<g>
		<g>
			<path style="fill:#263238;" d="M200.107,137.819l-3.375,0.535c-1.547,0.245-3.107-0.358-4.087-1.579l0,0l10.862-1.72l0,0
				C202.952,136.519,201.654,137.574,200.107,137.819z"/>
			
				<rect x="191.905" y="128.531" transform="matrix(0.9877 -0.1564 0.1564 0.9877 -18.1685 32.5033)" style="fill:#263238;" width="10.997" height="6.284"/>
			<g>
				<path style="fill:#407BFF;" d="M209.51,106.957c-1.469-9.274-10.669-15.4-19.988-12.851c-6.484,1.774-11.853,9.01-11.655,15.729
					c0.168,5.707,3.203,10.467,7.557,13.158c2.519,1.557,4.382,3.981,5.428,6.752l0,0c0.153,0.406,0.57,0.648,0.999,0.58
					l10.215-1.618c0.436-0.069,0.763-0.434,0.783-0.875l0,0c0.142-3.031,1.29-5.916,3.219-8.258
					C208.867,116.179,210.252,111.646,209.51,106.957z"/>
				<path style="opacity:0.7;fill:#FFFFFF;" d="M209.51,106.957c-1.469-9.274-10.669-15.4-19.988-12.851
					c-6.484,1.774-11.853,9.01-11.655,15.729c0.168,5.707,3.203,10.467,7.557,13.158c2.519,1.557,4.382,3.981,5.428,6.752l0,0
					c0.153,0.406,0.57,0.648,0.999,0.58l10.215-1.618c0.436-0.069,0.763-0.434,0.783-0.875l0,0c0.142-3.031,1.29-5.916,3.219-8.258
					C208.867,116.179,210.252,111.646,209.51,106.957z"/>
			</g>
			<g>
				<g>
					<path style="fill:#263238;" d="M202.661,132.007l-10.344,1.638c-0.743,0.118-1.44-0.389-1.558-1.132l0,0
						c-0.118-0.743,0.389-1.44,1.132-1.558l10.345-1.638c0.743-0.118,1.44,0.389,1.558,1.132l0,0
						C203.911,131.192,203.404,131.889,202.661,132.007z"/>
					<path style="fill:#263238;" d="M203.186,135.317l-10.344,1.638c-0.743,0.118-1.44-0.389-1.558-1.132l0,0
						c-0.118-0.743,0.389-1.44,1.132-1.558l10.344-1.638c0.743-0.118,1.44,0.389,1.558,1.132l0,0
						C204.435,134.502,203.928,135.199,203.186,135.317z"/>
				</g>
				<g style="opacity:0.5;">
					<path style="fill:#FFFFFF;" d="M202.661,132.007l-10.344,1.638c-0.743,0.118-1.44-0.389-1.558-1.132l0,0
						c-0.118-0.743,0.389-1.44,1.132-1.558l10.345-1.638c0.743-0.118,1.44,0.389,1.558,1.132l0,0
						C203.911,131.192,203.404,131.889,202.661,132.007z"/>
					<path style="fill:#FFFFFF;" d="M203.186,135.317l-10.344,1.638c-0.743,0.118-1.44-0.389-1.558-1.132l0,0
						c-0.118-0.743,0.389-1.44,1.132-1.558l10.344-1.638c0.743-0.118,1.44,0.389,1.558,1.132l0,0
						C204.435,134.502,203.928,135.199,203.186,135.317z"/>
				</g>
			</g>
			<path style="opacity:0.5;fill:#FFFFFF;" d="M203.244,102.537c-0.668,2.74-3.342,1.53-6.798,0.687s-6.386-1-5.718-3.74
				c0.668-2.739,4.012-4.277,7.468-3.434C201.653,96.894,203.913,99.798,203.244,102.537z"/>
		</g>
		<g>
			<g>
				<path style="fill:#407BFF;" d="M184.763,91.627l-2.114-5.103c-0.305-0.737,0.045-1.581,0.781-1.886l0,0
					c0.737-0.305,1.581,0.045,1.886,0.781l2.114,5.103c0.305,0.737-0.045,1.581-0.781,1.886l0,0
					C185.913,92.713,185.068,92.363,184.763,91.627z"/>
			</g>
			<g>
				<path style="fill:#407BFF;" d="M211.011,102.499L211.011,102.499c-0.305-0.737,0.045-1.581,0.781-1.886l5.104-2.114
					c0.737-0.305,1.581,0.045,1.886,0.781h0c0.305,0.737-0.045,1.581-0.781,1.886l-5.104,2.114
					C212.161,103.586,211.316,103.236,211.011,102.499z"/>
			</g>
			<g>
				<path style="fill:#407BFF;" d="M168.787,119.989L168.787,119.989c-0.305-0.737,0.045-1.581,0.781-1.886l5.104-2.114
					c0.737-0.305,1.581,0.045,1.886,0.781l0,0c0.305,0.737-0.045,1.581-0.781,1.886l-5.104,2.114
					C169.937,121.076,169.092,120.726,168.787,119.989z"/>
			</g>
			<g>
				<path style="fill:#407BFF;" d="M200.92,92.408L200.92,92.408c-0.737-0.305-1.087-1.15-0.781-1.886l2.114-5.103
					c0.305-0.737,1.15-1.086,1.886-0.781l0,0c0.737,0.305,1.086,1.15,0.781,1.886l-2.114,5.104
					C202.501,92.363,201.657,92.713,200.92,92.408z"/>
			</g>
			<g>
				<path style="fill:#407BFF;" d="M216.896,120.77l-5.104-2.114c-0.737-0.305-1.086-1.15-0.781-1.886l0,0
					c0.305-0.737,1.15-1.087,1.886-0.781l5.104,2.114c0.737,0.305,1.086,1.15,0.781,1.886h0
					C218.478,120.726,217.633,121.076,216.896,120.77z"/>
			</g>
			<g>
				<path style="fill:#407BFF;" d="M174.672,103.281l-5.104-2.114c-0.737-0.305-1.086-1.149-0.781-1.886l0,0
					c0.305-0.737,1.15-1.087,1.886-0.781l5.104,2.114c0.737,0.305,1.086,1.149,0.781,1.886l0,0
					C176.253,103.236,175.409,103.586,174.672,103.281z"/>
			</g>
		</g>
	</g>
</g>
<g id="Character">
	<g>
		<polygon style="fill:#FF8B7B;" points="229.251,417.974 222.005,417.86 221.609,401.03 228.855,401.143 		"/>
		<path style="fill:#263238;" d="M221.727,415.665l7.916,0.124c0.296,0.005,0.54,0.215,0.585,0.505l1.015,6.471
			c0.105,0.671-0.443,1.296-1.126,1.274c-2.853-0.093-6.968-0.326-10.557-0.382c-4.197-0.066-3.78,0.106-8.702,0.029
			c-2.976-0.047-3.607-3.071-2.344-3.324c5.751-1.152,6.334-1.213,11.43-4.16C220.498,415.882,221.102,415.655,221.727,415.665z"/>
		<polygon style="opacity:0.2;" points="221.611,401.034 221.813,409.709 229.062,409.823 228.86,401.148 		"/>
		<g>
			<path style="fill:#407BFF;" d="M220.446,416.311c0.06-0.02,0.102-0.072,0.109-0.136c0.008-0.072-0.031-0.144-0.097-0.178
				c-0.336-0.176-3.304-1.7-4.17-1.223c-0.167,0.092-0.26,0.249-0.268,0.453v0c-0.014,0.342,0.104,0.625,0.35,0.841
				c0.82,0.717,2.891,0.464,4.053,0.249C220.431,416.316,220.439,416.314,220.446,416.311z M216.527,415.05
				c0.541-0.181,2.144,0.447,3.314,1.013c-1.594,0.241-2.791,0.153-3.252-0.249c-0.162-0.142-0.236-0.323-0.226-0.556
				c0.004-0.09,0.034-0.144,0.102-0.181C216.484,415.067,216.505,415.058,216.527,415.05z"/>
			<path style="fill:#407BFF;" d="M220.446,416.311c0.015-0.005,0.03-0.012,0.043-0.022c0.049-0.035,0.074-0.094,0.066-0.155
				c-0.011-0.083-0.273-2.04-1.222-2.812c-0.29-0.235-0.614-0.34-0.964-0.31l0,0c-0.471,0.041-0.6,0.278-0.624,0.47
				c-0.105,0.818,1.684,2.414,2.574,2.821C220.36,416.323,220.405,416.325,220.446,416.311z M218.241,413.388
				c0.044-0.015,0.101-0.026,0.174-0.033l0,0c0.259-0.022,0.491,0.053,0.708,0.229c0.624,0.507,0.922,1.68,1.034,2.252
				c-0.913-0.551-2.134-1.802-2.071-2.293C218.09,413.513,218.1,413.435,218.241,413.388z M218.392,413.184l-0.004,0.001
				L218.392,413.184z"/>
		</g>
		<path style="fill:#407BFF;" d="M233.637,317.751c5.889-42.789,13.239-60.173,9.907-80.99l-21.576,0.346
			c0,0-10.086,57.084-7.94,81.699c2.229,25.594,5.495,85.164,5.495,85.164l11.677,0.188
			C231.2,404.158,237.997,346.338,233.637,317.751z"/>
		<path style="opacity:0.2;" d="M243.9,256.23c-1.167,11.537-4.313,24.701-7.561,43.926
			C233.359,283.912,232.537,264.707,243.9,256.23z"/>
		<polygon style="fill:#407BFF;" points="217.74,401.03 218.712,406.702 231.559,406.962 232.075,401.602 		"/>
		<polygon style="fill:#FF8B7B;" points="270.328,417.974 263.069,417.86 260.674,401.03 267.933,401.143 		"/>
		<path style="fill:#263238;" d="M262.549,415.665l7.91,0.124c0.296,0.005,0.529,0.215,0.56,0.505l0.689,6.471
			c0.072,0.671-0.508,1.296-1.19,1.274c-2.848-0.093-3.744-0.326-7.33-0.382c-4.194-0.066-2.258,0.106-7.176,0.029
			c-2.973-0.047-3.45-3.057-2.176-3.324c4.03-0.844,5.087-2.448,6.904-4.16C261.215,415.754,261.923,415.655,262.549,415.665z"/>
		<polygon style="opacity:0.2;" points="260.676,401.034 261.909,409.709 269.172,409.823 267.939,401.148 		"/>
		<g>
			<path style="fill:#407BFF;" d="M263.982,416.214c0.064,0.002,0.124-0.032,0.156-0.088c0.035-0.064,0.027-0.143-0.022-0.198
				c-0.247-0.277-2.44-2.701-3.439-2.559c-0.193,0.028-0.341,0.14-0.429,0.325h0c-0.147,0.31-0.147,0.612,0.001,0.896
				c0.49,0.943,2.534,1.42,3.709,1.621C263.966,416.213,263.974,416.214,263.982,416.214z M260.794,413.706
				c0.579,0.019,1.839,1.148,2.716,2.072c-1.591-0.325-2.681-0.818-2.956-1.347c-0.097-0.186-0.095-0.379,0.005-0.59
				c0.039-0.081,0.089-0.121,0.167-0.132C260.748,413.707,260.771,413.705,260.794,413.706z"/>
			<path style="fill:#407BFF;" d="M263.982,416.214c0.016,0,0.033-0.001,0.049-0.006c0.059-0.015,0.106-0.061,0.122-0.12
				c0.022-0.08,0.541-1.974-0.049-3.012c-0.18-0.316-0.444-0.524-0.784-0.616l0,0c-0.458-0.125-0.672,0.05-0.77,0.219
				c-0.418,0.718,0.639,2.804,1.315,3.484C263.897,416.195,263.939,416.213,263.982,416.214z M263.053,412.762
				c0.047,0.001,0.105,0.01,0.177,0.03h0c0.252,0.069,0.44,0.217,0.575,0.455c0.388,0.682,0.21,1.865,0.092,2.431
				c-0.642-0.821-1.301-2.395-1.049-2.826C262.863,412.825,262.903,412.757,263.053,412.762z M263.275,412.626h-0.004H263.275z"/>
		</g>
		<path style="fill:#407BFF;" d="M264.676,317.751c3.974-41.964,3.223-61.685-1.102-81.455l-26.666,0.811
			c0,0,3.276,57.084,8.282,81.699c5.202,25.594,13.357,85.164,13.357,85.164l11.699,0.188
			C270.245,404.158,272.357,346.338,264.676,317.751z"/>
		<polygon style="fill:#407BFF;" points="256.84,401.03 257.605,406.702 270.721,406.962 271.462,401.602 		"/>
		<path style="fill:#CE7A63;" d="M236.021,178.734l-0.586,0.539l-0.505,0.444l-0.992,0.825c-0.668,0.525-1.342,1.022-2.025,1.502
			c-1.366,0.959-2.764,1.855-4.217,2.667c-2.908,1.616-5.999,2.945-9.245,3.91c-3.249,0.941-6.645,1.548-10.089,1.632
			c-0.858,0.035-1.722,0.005-2.581-0.017l-1.29-0.078l-0.37-0.026l-0.613-0.066c-0.373-0.034-0.914-0.163-1.363-0.283
			c-1.019-0.31-2.228-0.876-3.281-1.945c-1.049-1.074-1.63-2.403-1.872-3.482c-0.431-2.154-0.088-3.474,0.165-4.582
			c0.59-2.186,1.386-3.696,2.184-5.199c0.808-1.47,1.658-2.825,2.549-4.119c1.773-2.592,3.626-5.008,5.561-7.341
			c3.854-4.677,7.919-9.018,12.259-13.21l4.473,3.883c-3.316,4.755-6.623,9.61-9.723,14.438c-1.53,2.428-3.037,4.853-4.348,7.278
			c-0.651,1.213-1.268,2.415-1.783,3.574c-0.503,1.133-0.926,2.329-1.01,3.014c-0.076,0.319,0.082,0.501-0.027-0.208
			c-0.064-0.367-0.319-1.013-0.854-1.554c-0.524-0.549-1.055-0.788-1.373-0.88c-0.087-0.052-0.275-0.063-0.278-0.082
			c-0.021-0.008-0.042-0.012-0.063-0.012l0.181-0.007l0.918-0.029c0.612-0.046,1.222-0.074,1.831-0.16
			c2.438-0.261,4.852-0.868,7.213-1.698c2.36-0.843,4.667-1.94,6.881-3.227c1.109-0.638,2.202-1.318,3.245-2.051
			c0.522-0.365,1.036-0.741,1.525-1.124l0.727-0.56l0.574-0.468L236.021,178.734z"/>
		<path style="fill:#407BFF;" d="M209.516,177.803l3.516,14.546c0,0,18.888-3.131,26.982-12.627
			c5.712-6.702-2.053-12.446-14.018-10.09C218.607,171.087,209.516,177.803,209.516,177.803z"/>
		<path style="opacity:0.7;fill:#FFFFFF;" d="M209.516,177.803l3.516,14.546c0,0,18.888-3.131,26.982-12.627
			c5.712-6.702-2.053-12.446-14.018-10.09C218.607,171.087,209.516,177.803,209.516,177.803z"/>
		<g>
			<path style="fill:#CE7A63;" d="M218.607,152.006l0.286-9.086l8.172,3.084c0,0-1.631,8.48-4.333,8.505L218.607,152.006z"/>
			<polygon style="fill:#CE7A63;" points="225.154,137.728 230.278,141.347 227.065,146.003 218.893,142.92 			"/>
		</g>
		<path style="fill:#263238;" d="M221.439,238.089l5.951,3l7.416-4l7.387,5l21.439-4c0.298-3.767-0.575-16.026,0.074-31.637
			c0.436-10.482,1.564-22.475,4.193-34.414c0.192-0.852,0.383-1.692,0.585-2.543c0,0-2.139-0.436-5.203-0.883
			c-2.543-0.373-5.736-0.755-8.864-0.905c-5.384-0.255-13.185-0.425-17.931,0c-2.756,0.256-5.448,0.713-7.598,1.128
			c-2.745,0.553-4.363,1.027-4.363,1.027S214.128,193.725,221.439,238.089z"/>
		<path style="opacity:0.3;" d="M263.706,206.455c0.436-10.482,1.564-22.475,4.193-34.414c-2.82-0.245-7.641,0.032-8.439,4.587
			C258.599,181.522,259.684,193.037,263.706,206.455z"/>
		<path style="fill:#CE7A63;" d="M270.925,174.535c0.835,1.287,1.532,2.423,2.229,3.656c0.697,1.211,1.371,2.428,2.029,3.656
			c1.305,2.461,2.527,4.971,3.648,7.543c2.221,5.155,4.159,10.507,5.275,16.33l0.109,0.542l0.054,0.271l0.074,0.444
			c0.103,0.646,0.128,1.23,0.135,1.801c-0.007,1.117-0.139,2.096-0.324,2.999c-0.385,1.796-0.945,3.314-1.554,4.742
			c-1.215,2.846-2.716,5.299-4.25,7.677c-3.16,4.702-6.592,8.925-10.513,12.906l-4.667-3.647c2.556-4.514,5.16-9.14,7.294-13.72
			c1.086-2.274,2.026-4.593,2.697-6.749c0.328-1.072,0.557-2.119,0.625-2.958c0.037-0.414,0.038-0.77,0.003-0.989
			c-0.022-0.096-0.039-0.181-0.061-0.191c-0.009-0.02,0.003,0.025-0.019-0.048l-0.063-0.216l-0.127-0.432l-0.504-1.724l-0.595-1.73
			c-0.392-1.154-0.841-2.314-1.296-3.467c-0.935-2.306-1.984-4.606-3.074-6.893c-1.113-2.282-2.285-4.551-3.495-6.803
			c-0.6-1.128-1.218-2.25-1.851-3.355l-1.871-3.229L270.925,174.535z"/>
		<path style="fill:#407BFF;" d="M258.013,183.86c1.777,5.278,8.567,16.442,8.567,16.442l15.983-8.854
			c0,0-6.965-20.362-14.079-21.955C260.625,167.735,254.779,174.293,258.013,183.86z"/>
		<path style="opacity:0.7;fill:#FFFFFF;" d="M258.013,183.86c1.777,5.278,8.567,16.442,8.567,16.442l15.983-8.854
			c0,0-6.965-20.362-14.079-21.955C260.625,167.735,254.779,174.293,258.013,183.86z"/>
		<path style="fill:#CE7A63;" d="M265.28,231.706l-7.855-1.368l4.031,9.091c0,0,7.17-0.042,6.841-3.737L265.28,231.706z"/>
		<polygon style="fill:#CE7A63;" points="251.565,234.907 255.255,242.253 261.456,239.429 257.425,230.338 		"/>
		<path style="fill:#407BFF;" d="M237.603,183.712c0,0-6.446-4.065-2.439-15.859c0.439-0.051,0.877-0.104,1.322-0.146
			c4.746-0.425,12.546-0.255,17.931,0c0.705,0.034,1.413,0.081,2.117,0.135C254.253,169.434,245.469,175.741,237.603,183.712z"/>
		<path style="opacity:0.7;fill:#FFFFFF;" d="M237.603,183.712c0,0-6.446-4.065-2.439-15.859c0.439-0.051,0.877-0.104,1.322-0.146
			c4.746-0.425,12.546-0.255,17.931,0c0.705,0.034,1.413,0.081,2.117,0.135C254.253,169.434,245.469,175.741,237.603,183.712z"/>
		<path style="fill:#CE7A63;" d="M243.746,172.579c10.038-0.179,11.363-4.83,11.363-4.83c-3.906-3.852-2.405-14.376-1.075-20.155
			l-4.799,3.98l-6.534,5.427c0.192,0.883,0.341,1.778,0.415,2.64c0.351,3.543-0.564,6.768-5.778,8.002c0,0-6.185,4.097,2.995,4.838
			L243.746,172.579z"/>
		<path style="opacity:0.2;" d="M242.7,157.001c0.192,0.883,0.341,1.778,0.415,2.64c2.437-0.49,5.693-3.086,6.034-5.576
			c0.128-0.936,0.149-1.841,0.085-2.49L242.7,157.001z"/>
		<path style="fill:#263238;" d="M231.982,131.524c-3.097,2.937-1.549,13.995,3.901,14.596
			C241.333,146.722,237.848,125.962,231.982,131.524z"/>
		<path style="fill:#CE7A63;" d="M252.633,136.896c0.941,7.794,1.884,12.295-1.248,17.089c-4.711,7.21-14.779,5.755-18.007-1.523
			c-2.906-6.551-3.956-18.197,2.954-22.897C243.141,124.935,251.692,129.102,252.633,136.896z"/>
		<path style="fill:#263238;" d="M258.549,126.783c4.063,0.343,3.739,5.862,2.409,9.76c-1.847,5.416-5.675,10.63-8.757,9.498
			c-1.238-0.163-3.499,2.63-4.401-0.117c-0.469-1.429,1.408-4.003,1.436-6.512c0.028-2.508-1.794-4.951-1.662-6.115
			c-4.069-1.023-14.1,6.636-20.846-1.089c-3.02-3.458-2.142-16.113,4.736-13.395c4.338,1.714,10.383,6.772,14.863,3.991
			C253.245,118.509,260.624,121.393,258.549,126.783z"/>
		<path style="fill:#CE7A63;" d="M256.929,143.879c-0.755,2.007-2.22,3.545-3.649,4.332c-2.15,1.184-3.4-0.755-2.949-3.203
			c0.406-2.204,2.014-5.475,4.242-5.644C256.769,139.198,257.792,141.584,256.929,143.879z"/>
		<path style="fill:#263238;" d="M241.449,141.586c0.115,0.626-0.121,1.206-0.528,1.295c-0.406,0.089-0.829-0.346-0.943-0.973
			c-0.115-0.626,0.122-1.206,0.528-1.295C240.911,140.525,241.334,140.96,241.449,141.586z"/>
		<path style="fill:#263238;" d="M234.423,143.127c0.115,0.626-0.122,1.206-0.528,1.295c-0.406,0.089-0.829-0.346-0.943-0.973
			c-0.115-0.626,0.121-1.206,0.528-1.295C233.886,142.066,234.308,142.501,234.423,143.127z"/>
		<path style="fill:#BA4D3C;" d="M236.714,142.949c0,0-0.751,3.923-1.988,6.008c1.289,0.793,3.072-0.09,3.072-0.09L236.714,142.949z
			"/>
		<path style="fill:#263238;" d="M243.203,138.824c0.058-0.02,0.111-0.055,0.155-0.104c0.137-0.154,0.125-0.39-0.029-0.528
			c-1.523-1.362-3.191-0.892-3.261-0.871c-0.192,0.036-0.312,0.265-0.253,0.464c0.058,0.198,0.265,0.311,0.463,0.253
			c0.069-0.019,1.357-0.359,2.553,0.711C242.936,138.844,243.079,138.867,243.203,138.824z"/>
		<path style="fill:#263238;" d="M230.957,141.355c0.113-0.039,0.205-0.132,0.239-0.255c0.443-1.641,1.749-2.12,1.761-2.125
			c0.195-0.069,0.297-0.282,0.228-0.477c-0.068-0.194-0.281-0.296-0.475-0.228c-0.001,0-0.001,0.001-0.002,0.001
			c-0.069,0.025-1.69,0.619-2.234,2.634c-0.054,0.199,0.064,0.405,0.263,0.458C230.813,141.383,230.889,141.379,230.957,141.355z"/>
		<g>
			<path style="fill:#407BFF;" d="M228.725,143.223l0.676,3.017c0.092,0.413,0.463,0.696,0.87,0.696
				c0.064,0,0.129-0.007,0.194-0.021l4.83-1.083c0.478-0.107,0.781-0.586,0.674-1.064l-0.545-2.431
				c0.183-0.208,0.746-0.683,1.812-0.434l0.551,2.457c0.092,0.413,0.462,0.695,0.87,0.695c0.064,0,0.129-0.007,0.194-0.021
				l6.274-1.407c0.478-0.107,0.781-0.586,0.674-1.064l-0.676-3.017c-0.092-0.413-0.462-0.695-0.87-0.695
				c-0.064,0-0.129,0.007-0.194,0.022l-6.274,1.407c-0.478,0.107-0.781,0.586-0.674,1.064l0.003,0.01
				c-0.878-0.139-1.476,0.129-1.82,0.398v-0.001c-0.093-0.413-0.463-0.696-0.87-0.696c-0.064,0-0.129,0.007-0.194,0.022l-4.83,1.083
				C228.921,142.267,228.618,142.745,228.725,143.223z M237.899,140.786l6.274-1.407c0.026-0.006,0.053-0.009,0.08-0.009
				c0.172,0,0.325,0.122,0.362,0.289l0.676,3.017c0.021,0.096,0.004,0.195-0.05,0.279c-0.053,0.084-0.135,0.142-0.231,0.164
				l-6.274,1.407c-0.027,0.006-0.053,0.009-0.08,0.009c-0.172,0-0.325-0.122-0.363-0.289l-0.677-3.017
				C237.574,141.033,237.703,140.83,237.899,140.786z M229.513,142.667l4.83-1.083c0.026-0.006,0.053-0.009,0.08-0.009
				c0.172,0,0.325,0.122,0.363,0.289l0.677,3.017c0.021,0.096,0.004,0.195-0.05,0.279c-0.053,0.084-0.135,0.142-0.231,0.164
				l-4.83,1.083c-0.026,0.006-0.053,0.009-0.08,0.009c-0.172,0-0.325-0.122-0.363-0.289l-0.676-3.017
				C229.188,142.91,229.314,142.712,229.513,142.667z"/>
			<path style="opacity:0.5;fill:#FFFFFF;" d="M228.725,143.223l0.676,3.017c0.092,0.413,0.463,0.696,0.87,0.696
				c0.064,0,0.129-0.007,0.194-0.021l4.83-1.083c0.478-0.107,0.781-0.586,0.674-1.064l-0.545-2.431
				c0.183-0.208,0.746-0.683,1.812-0.434l0.551,2.457c0.092,0.413,0.462,0.695,0.87,0.695c0.064,0,0.129-0.007,0.194-0.021
				l6.274-1.407c0.478-0.107,0.781-0.586,0.674-1.064l-0.676-3.017c-0.092-0.413-0.462-0.695-0.87-0.695
				c-0.064,0-0.129,0.007-0.194,0.022l-6.274,1.407c-0.478,0.107-0.781,0.586-0.674,1.064l0.003,0.01
				c-0.878-0.139-1.476,0.129-1.82,0.398v-0.001c-0.093-0.413-0.463-0.696-0.87-0.696c-0.064,0-0.129,0.007-0.194,0.022l-4.83,1.083
				C228.921,142.267,228.618,142.745,228.725,143.223z M237.899,140.786l6.274-1.407c0.026-0.006,0.053-0.009,0.08-0.009
				c0.172,0,0.325,0.122,0.362,0.289l0.676,3.017c0.021,0.096,0.004,0.195-0.05,0.279c-0.053,0.084-0.135,0.142-0.231,0.164
				l-6.274,1.407c-0.027,0.006-0.053,0.009-0.08,0.009c-0.172,0-0.325-0.122-0.363-0.289l-0.677-3.017
				C237.574,141.033,237.703,140.83,237.899,140.786z M229.513,142.667l4.83-1.083c0.026-0.006,0.053-0.009,0.08-0.009
				c0.172,0,0.325,0.122,0.363,0.289l0.677,3.017c0.021,0.096,0.004,0.195-0.05,0.279c-0.053,0.084-0.135,0.142-0.231,0.164
				l-4.83,1.083c-0.026,0.006-0.053,0.009-0.08,0.009c-0.172,0-0.325-0.122-0.363-0.289l-0.676-3.017
				C229.188,142.91,229.314,142.712,229.513,142.667z"/>
		</g>
		<g>
			<path style="fill:#263238;" d="M238.098,149.741c1.404,0.216,4.434-4.315,5.561-1.173c1.127,3.143,0.706,10.347-0.959,8.433
				c0,0-0.06,2.552-1.987,0.319c0,0,0.448,2.017-1.615,0.017c0,0,0.093,1.642-2.163-0.521
				C234.68,154.654,231.411,148.714,238.098,149.741z"/>
			<path style="opacity:0.4;fill:#FFFFFF;" d="M238.098,149.741c1.404,0.216,4.434-4.315,5.561-1.173
				c1.127,3.143,0.706,10.347-0.959,8.433c0,0-0.06,2.552-1.987,0.319c0,0,0.448,2.017-1.615,0.017c0,0,0.093,1.642-2.163-0.521
				C234.68,154.654,231.411,148.714,238.098,149.741z"/>
		</g>
		<path style="fill:#263238;" d="M237.127,151.572c2.506,0.075,3.953-1.446,4.019-1.517c0.07-0.075,0.066-0.193-0.009-0.264
			c-0.075-0.071-0.193-0.066-0.264,0.009c-0.017,0.017-1.663,1.751-4.429,1.335c-0.103-0.016-0.197,0.055-0.212,0.157
			c-0.015,0.102,0.055,0.197,0.158,0.212C236.644,151.543,236.891,151.565,237.127,151.572z"/>
	</g>
</g>
</svg>
